SplineFontDB: 3.0
FontName: Nunito-Light
FullName: Nunito Light
FamilyName: Nunito
Weight: Light
Copyright: Copyright (c) 2011 by vernon adams. All rights reserved.
Version: 1.000
FONDName: Nunito Light
ItalicAngle: 0
UnderlinePosition: -205
UnderlineWidth: 102
Ascent: 1638
Descent: 410
UFOAscent: 1992
UFODescent: -632
LayerCount: 2
Layer: 0 0 "Back"  1
Layer: 1 0 "Fore"  0
FSType: 0
OS2Version: 0
OS2_WeightWidthSlopeOnly: 0
OS2_UseTypoMetrics: 0
CreationTime: 1335200831
ModificationTime: 1335200831
PfmFamily: 0
TTFWeight: 300
TTFWidth: 0
LineGap: 0
VLineGap: 0
Panose: 2 0 5 3 3 0 0 2 0 3
OS2TypoAscent: 1992
OS2TypoAOffset: 0
OS2TypoDescent: -632
OS2TypoDOffset: 0
OS2TypoLinegap: 0
OS2WinAscent: 1992
OS2WinAOffset: 0
OS2WinDescent: -632
OS2WinDOffset: 0
HheadAscent: 1992
HheadAOffset: 0
HheadDescent: -632
HheadDOffset: 0
OS2SubXSize: 5583
OS2SubYSize: 5155
OS2SubXOff: 0
OS2SubYOff: 645
OS2SupXSize: 5583
OS2SupYSize: 5155
OS2SupXOff: 0
OS2SupYOff: 3006
OS2StrikeYSize: 102
OS2StrikeYPos: 512
OS2Vendor: 'newt'
OS2CodePages: 20000001.00000000
OS2UnicodeRanges: 800000ef.5000204b.00000000.00000000
Lookup: 258 0 0 "'kern' Horizontal Kerning lookup 0"  {"'kern' Horizontal Kerning lookup 0 subtable"  } ['kern' ('DFLT' <'dflt' > ) ]
Lookup: 258 0 0 "'kern' Horizontal Kerning in Latin lookup 0"  {"'kern' Horizontal Kerning in Latin lookup 0 subtable"  } ['kern' ('latn' <'dflt' > ) ]
DEI: 91125
LangName: 1033 "" "" "" "vernonadams: Nunito Light: 2011" "" "Version 1.000" "" "Nunito Light is a trademark of vernon adams." "vernon adams" "vernon adams" "Copyright (c) 2011 by vernon adams. All rights reserved." "" "www.newtypography.co.uk" "SIL Open Font License, Version 1.1+AAoA-This Font Software is licensed under the SIL Open Font License, Version 1.1.+AAoA-This license is available with a FAQ at: http://scripts.sil.org/OFL" "http://scripts.sil.org/OFL" "" "" "" "Nunito Light" 
PickledData: "(dp1
S'org.robofab.glyphOrder'
p2
(S'.notdef'
S'NULL'
S'CR'
S'space'
S'exclam'

StartChar: A
Encoding: 65 65 1
Width: 1392
VWidth: 0
Flags: W
LayerCount: 2
Fore
SplineSet
1337 108 m 1
 1340 97 1342 87 1342 80 c 0
 1342 31 1294 0 1248 0 c 0
 1216 0 1185 16 1173 53 c 1
 1045 373 l 1
 338 373 l 1
 211 53 l 1
 198 14 169 0 138 0 c 0
 94 0 48 32 48 78 c 0
 48 87 50 97 54 108 c 2
 530 1270 l 1
 581 1404 628 1426 694 1426 c 0
 761 1426 806 1403 859 1270 c 1
 1337 108 l 1
691 1279 m 1
 388 508 l 1
 995 508 l 1
 693 1279 l 1
 691 1279 l 1
EndSplineSet
EndChar

StartChar: AE
Encoding: 198 198 2
Width: 1963
VWidth: 0
Flags: W
LayerCount: 2
Fore
SplineSet
1252 0 m 2
 1211 0 1169 9 1162 53 c 2
 1107 373 l 1
 416 373 l 1
 211 53 l 1
 190 14 157 -1 126 -1 c 0
 87 -1 52 24 52 63 c 1
 51 76 56 91 66 108 c 2
 805 1278 l 1
 880 1409 934 1426 998 1426 c 2
 1816 1426 l 2
 1869 1426 1899 1383 1899 1344 c 0
 1899 1311 1879 1281 1834 1281 c 2
 1139 1281 l 1
 1215 806 l 1
 1785 806 l 2
 1838 806 1868 765 1868 725 c 0
 1868 692 1847 662 1802 662 c 2
 1236 662 l 1
 1321 145 l 1
 1835 145 l 2
 1888 145 1918 102 1918 63 c 0
 1918 31 1898 0 1853 0 c 2
 1252 0 l 2
495 508 m 1
 1090 508 l 1
 967 1293 l 1
 964 1293 l 1
 495 508 l 1
EndSplineSet
EndChar

StartChar: B
Encoding: 66 66 9
Width: 1385
VWidth: 0
Flags: W
LayerCount: 2
Fore
SplineSet
195 1341 m 2
 195 1389 235 1426 283 1426 c 2
 742 1426 l 2
 996 1426 1178 1286 1178 1068 c 0
 1178 912 1060 781 903 746 c 1
 903 742 l 1
 1104 710 1237 583 1237 383 c 0
 1237 187 1095 0 761 0 c 2
 283 0 l 2
 235 0 195 37 195 85 c 2
 195 1341 l 2
370 138 m 1
 671 138 l 2
 914 138 1052 194 1052 405 c 0
 1052 633 862 672 599 672 c 2
 370 672 l 1
 370 138 l 1
370 1288 m 1
 370 801 l 1
 666 801 l 2
 835 801 995 866 995 1049 c 0
 995 1244 829 1288 661 1288 c 2
 370 1288 l 1
EndSplineSet
EndChar

StartChar: C
Encoding: 67 67 10
Width: 1385
VWidth: 0
Flags: W
LayerCount: 2
Fore
SplineSet
118 704 m 0
 118 1095 327 1438 767 1438 c 0
 902 1438 1023 1406 1126 1359 c 0
 1157 1344 1170 1314 1170 1288 c 0
 1170 1251 1146 1216 1107 1216 c 0
 1099 1216 1091 1217 1084 1220 c 0
 979 1259 868 1283 780 1283 c 0
 419 1283 307 967 307 706 c 0
 307 454 414 131 780 131 c 0
 871 131 1001 160 1109 223 c 0
 1121 230 1134 232 1145 232 c 0
 1180 232 1205 202 1205 167 c 0
 1205 52 931 -22 769 -22 c 0
 333 -22 118 305 118 704 c 0
EndSplineSet
EndChar

StartChar: D
Encoding: 68 68 13
Width: 1494
VWidth: 0
Flags: W
LayerCount: 2
Fore
SplineSet
267 0 m 2
 218 0 178 39 178 86 c 2
 178 1340 l 2
 178 1387 218 1426 267 1426 c 2
 607 1426 l 2
 1103 1426 1371 1178 1371 710 c 0
 1371 244 1093 0 611 0 c 2
 267 0 l 2
355 140 m 1
 630 140 l 2
 1022 140 1181 362 1181 712 c 0
 1181 1108 959 1286 582 1286 c 2
 355 1286 l 1
 355 140 l 1
EndSplineSet
EndChar

StartChar: E
Encoding: 69 69 14
Width: 1255
VWidth: 0
Flags: W
LayerCount: 2
Fore
SplineSet
287 0 m 2
 243 0 199 41 199 86 c 2
 199 1340 l 2
 199 1383 234 1426 282 1426 c 2
 1028 1426 l 2
 1077 1426 1101 1390 1101 1354 c 0
 1101 1317 1077 1281 1028 1281 c 2
 374 1281 l 1
 374 806 l 1
 996 806 l 2
 1047 806 1070 770 1070 734 c 0
 1070 698 1045 662 996 662 c 2
 374 662 l 1
 374 145 l 1
 1056 145 l 2
 1105 145 1129 109 1129 73 c 0
 1129 36 1105 0 1056 0 c 2
 287 0 l 2
EndSplineSet
EndChar

StartChar: Eth
Encoding: 208 208 19
Width: 1494
VWidth: 0
Flags: W
LayerCount: 2
Fore
SplineSet
267 0 m 2
 218 0 178 39 178 86 c 2
 178 648 l 1
 64 648 l 2
 21 648 0 680 0 712 c 0
 0 744 21 775 64 775 c 2
 178 775 l 1
 178 1340 l 2
 178 1387 218 1426 267 1426 c 2
 607 1426 l 2
 1103 1426 1371 1178 1371 710 c 0
 1371 244 1093 0 611 0 c 2
 267 0 l 2
355 648 m 1
 355 140 l 1
 630 140 l 2
 1022 140 1181 362 1181 712 c 0
 1181 1108 959 1286 582 1286 c 2
 355 1286 l 1
 355 775 l 1
 483 775 l 2
 526 775 548 743 548 712 c 0
 548 680 526 648 483 648 c 2
 355 648 l 1
EndSplineSet
EndChar

StartChar: Euro
Encoding: 8364 8364 20
Width: 1385
VWidth: 0
Flags: W
LayerCount: 2
Fore
SplineSet
133 829 m 1
 66 829 l 2
 26 829 5 859 5 890 c 0
 5 921 25 950 66 950 c 2
 153 950 l 1
 220 1241 424 1452 772 1452 c 0
 885 1452 994 1435 1087 1400 c 1
 1115 1385 1127 1361 1127 1334 c 0
 1127 1297 1102 1260 1063 1260 c 0
 1054 1260 1046 1262 1037 1266 c 0
 961 1293 875 1305 782 1305 c 0
 527 1305 396 1145 345 950 c 1
 965 950 l 2
 1006 950 1026 921 1026 890 c 0
 1026 859 1005 829 965 829 c 2
 322 829 l 1
 317 792 315 756 315 719 c 0
 315 674 318 628 324 580 c 1
 963 580 l 2
 1004 580 1024 551 1024 520 c 0
 1024 489 1003 459 963 459 c 2
 349 459 l 1
 405 271 532 119 782 119 c 0
 870 119 969 133 1053 161 c 0
 1060 164 1067 165 1074 165 c 0
 1113 165 1142 127 1142 88 c 0
 1142 63 1131 39 1100 26 c 1
 999 -9 889 -28 770 -28 c 0
 428 -28 225 174 156 459 c 1
 64 459 l 2
 24 459 3 489 3 520 c 0
 3 551 23 580 64 580 c 2
 134 580 l 1
 129 623 127 665 127 709 c 0
 127 748 129 788 133 829 c 1
EndSplineSet
EndChar

StartChar: F
Encoding: 70 70 21
Width: 1150
VWidth: 0
Flags: W
LayerCount: 2
Fore
SplineSet
186 1341 m 2
 186 1392 225 1426 270 1426 c 2
 975 1426 l 2
 1024 1426 1048 1390 1048 1354 c 0
 1048 1317 1024 1281 975 1281 c 2
 364 1281 l 1
 364 815 l 1
 949 815 l 2
 998 815 1023 779 1023 743 c 0
 1023 706 998 670 949 670 c 2
 364 670 l 1
 364 84 l 2
 364 27 319 0 275 0 c 0
 230 0 186 28 186 84 c 2
 186 1341 l 2
EndSplineSet
EndChar

StartChar: G
Encoding: 71 71 22
Width: 1498
VWidth: 0
Flags: W
LayerCount: 2
Fore
SplineSet
1247 735 m 2
 1294 735 1321 707 1321 660 c 2
 1321 138 l 2
 1321 89 1292 59 1255 50 c 1
 1102 3 939 -22 802 -22 c 0
 398 -22 123 221 123 712 c 0
 123 1093 353 1438 828 1438 c 0
 973 1438 1112 1413 1227 1365 c 0
 1255 1353 1266 1329 1266 1305 c 0
 1266 1269 1241 1232 1202 1232 c 2
 1194 1232 l 2
 1191 1232 1189 1233 1186 1234 c 0
 1070 1266 933 1287 835 1287 c 0
 465 1287 312 1018 312 709 c 0
 312 359 444 123 834 123 c 0
 939 123 1048 140 1145 167 c 1
 1145 601 l 1
 862 601 l 2
 818 601 795 633 795 668 c 0
 795 703 817 735 862 735 c 2
 1247 735 l 2
EndSplineSet
EndChar

StartChar: H
Encoding: 72 72 23
Width: 1494
VWidth: 0
Flags: W
LayerCount: 2
Fore
SplineSet
1123 1342 m 2
 1123 1397 1167 1426 1212 1426 c 0
 1257 1426 1301 1398 1301 1342 c 2
 1301 84 l 2
 1301 27 1256 0 1211 0 c 0
 1167 0 1123 28 1123 84 c 2
 1123 666 l 1
 371 666 l 1
 371 84 l 2
 371 27 326 0 281 0 c 0
 237 0 193 28 193 84 c 2
 193 1342 l 2
 193 1397 238 1426 283 1426 c 0
 327 1426 371 1398 371 1342 c 2
 371 814 l 1
 1123 814 l 1
 1123 1342 l 2
EndSplineSet
EndChar

StartChar: I
Encoding: 73 73 24
Width: 592
VWidth: 0
Flags: W
LayerCount: 2
Fore
SplineSet
208 1341 m 2
 208 1397 253 1426 298 1426 c 0
 342 1426 386 1398 386 1341 c 2
 386 84 l 2
 386 27 341 0 296 0 c 0
 252 0 208 28 208 84 c 2
 208 1341 l 2
EndSplineSet
EndChar

StartChar: J
Encoding: 74 74 29
Width: 1058
VWidth: 0
Flags: W
LayerCount: 2
Fore
SplineSet
708 1343 m 2
 708 1399 753 1426 798 1426 c 0
 843 1426 887 1399 887 1343 c 2
 887 441 l 2
 887 103 670 -22 446 -22 c 0
 282 -22 125 72 69 239 c 1
 62 254 59 269 59 282 c 0
 59 326 95 353 131 353 c 0
 156 353 180 341 195 312 c 1
 238 191 317 121 446 121 c 0
 613 121 708 223 708 456 c 2
 708 1343 l 2
EndSplineSet
EndChar

StartChar: K
Encoding: 75 75 30
Width: 1289
VWidth: 0
Flags: W
LayerCount: 2
Fore
SplineSet
381 83 m 2
 381 27 336 0 292 0 c 0
 249 0 206 27 206 83 c 2
 206 1342 l 2
 206 1398 250 1426 294 1426 c 0
 337 1426 381 1397 381 1342 c 2
 381 797 l 1
 983 1395 l 1
 1002 1418 1025 1426 1048 1426 c 0
 1091 1426 1128 1394 1128 1353 c 0
 1128 1336 1121 1319 1108 1302 c 1
 568 779 l 1
 1164 139 l 1
 1179 120 1186 102 1186 84 c 0
 1186 38 1142 0 1095 0 c 0
 1071 0 1046 11 1026 35 c 1
 381 733 l 1
 381 83 l 2
EndSplineSet
EndChar

StartChar: L
Encoding: 76 76 31
Width: 1150
VWidth: 0
Flags: W
LayerCount: 2
Fore
SplineSet
285 0 m 2
 237 0 195 38 195 87 c 2
 195 1342 l 2
 195 1397 240 1426 285 1426 c 0
 329 1426 373 1398 373 1342 c 2
 373 146 l 1
 1020 146 l 2
 1071 146 1094 110 1094 73 c 0
 1094 37 1069 0 1020 0 c 2
 285 0 l 2
EndSplineSet
EndChar

StartChar: Lslash
Encoding: 321 321 32
Width: 1150
VWidth: 0
Flags: W
LayerCount: 2
Fore
SplineSet
285 0 m 2
 237 0 195 38 195 87 c 2
 195 727 l 1
 82 690 l 2
 75 687 67 686 59 686 c 0
 19 686 -6 722 -6 757 c 0
 -6 783 8 807 40 818 c 2
 195 868 l 1
 195 1340 l 2
 195 1395 240 1424 285 1424 c 0
 329 1424 373 1396 373 1340 c 2
 373 927 l 1
 635 1012 l 2
 642 1015 650 1016 658 1016 c 0
 698 1016 723 981 723 946 c 0
 723 919 709 895 677 885 c 2
 373 785 l 1
 373 146 l 1
 1020 146 l 2
 1071 146 1094 110 1094 73 c 0
 1094 37 1069 0 1020 0 c 2
 285 0 l 2
EndSplineSet
EndChar

StartChar: M
Encoding: 77 77 33
Width: 1956
VWidth: 0
Flags: W
LayerCount: 2
Fore
SplineSet
981 230 m 1
 1454 1277 l 1
 1505 1397 1542 1426 1625 1426 c 0
 1702 1426 1765 1379 1765 1271 c 2
 1765 79 l 2
 1765 27 1723 0 1682 0 c 0
 1642 0 1602 26 1602 79 c 2
 1602 1253 l 1
 1085 110 l 1
 1064 59 1021 33 977 33 c 0
 933 33 896 57 872 110 c 2
 357 1245 l 1
 357 79 l 2
 357 27 315 0 274 0 c 0
 234 0 194 26 194 79 c 2
 194 1271 l 2
 194 1379 257 1426 334 1426 c 0
 418 1426 459 1396 513 1275 c 2
 976 230 l 1
 981 230 l 1
EndSplineSet
EndChar

StartChar: N
Encoding: 78 78 34
Width: 1502
VWidth: 0
Flags: W
LayerCount: 2
Fore
SplineSet
180 1308 m 2
 180 1383 234 1426 293 1426 c 0
 332 1426 370 1408 399 1368 c 1
 1156 227 l 1
 1156 1346 l 2
 1156 1399 1197 1426 1240 1426 c 0
 1281 1426 1323 1399 1323 1346 c 2
 1323 118 l 2
 1323 43 1265 0 1202 0 c 0
 1163 0 1122 18 1093 58 c 1
 348 1183 l 1
 348 79 l 2
 348 27 305 0 263 0 c 0
 220 0 180 26 180 79 c 2
 180 1308 l 2
EndSplineSet
EndChar

StartChar: O
Encoding: 79 79 37
Width: 1597
VWidth: 0
Flags: W
LayerCount: 2
Fore
SplineSet
319 708 m 0
 319 430 447 123 799 123 c 0
 1139 123 1279 414 1279 708 c 0
 1279 993 1142 1293 799 1293 c 0
 464 1293 319 1013 319 708 c 0
128 708 m 0
 128 1123 359 1438 799 1438 c 0
 1239 1438 1468 1121 1468 708 c 0
 1468 297 1240 -22 799 -22 c 0
 358 -22 128 295 128 708 c 0
EndSplineSet
EndChar

StartChar: OE
Encoding: 338 338 38
Width: 1998
VWidth: 0
Flags: W
LayerCount: 2
Fore
SplineSet
1075 1290 m 1
 1072 1290 951 1312 727 1312 c 0
 431 1312 297 1024 297 713 c 0
 297 402 429 112 727 112 c 1
 938 115 1073 138 1075 140 c 1
 1075 1290 l 1
1249 1282 m 1
 1249 806 l 1
 1740 806 l 2
 1791 806 1817 770 1817 733 c 0
 1817 697 1791 662 1740 662 c 2
 1249 662 l 1
 1249 143 l 1
 1798 143 l 2
 1846 143 1872 107 1872 70 c 0
 1872 34 1846 -1 1798 -1 c 2
 1090 -1 l 2
 1083 -1 849 -29 721 -29 c 0
 349 -29 118 265 118 712 c 0
 118 1161 348 1453 728 1453 c 0
 861 1453 1089 1426 1099 1426 c 2
 1772 1426 l 2
 1821 1426 1847 1391 1847 1354 c 0
 1847 1318 1821 1282 1772 1282 c 2
 1249 1282 l 1
EndSplineSet
EndChar

StartChar: Oslash
Encoding: 216 216 44
Width: 1597
VWidth: 0
Flags: W
LayerCount: 2
Fore
SplineSet
1138 1373 m 1
 1353 1259 1468 1021 1468 712 c 0
 1468 269 1231 -31 799 -31 c 0
 726 -31 659 -22 597 -5 c 1
 553 -113 l 2
 540 -144 514 -158 489 -158 c 0
 454 -158 423 -135 423 -96 c 0
 423 -87 424 -77 429 -66 c 2
 473 44 l 1
 249 156 128 398 128 712 c 0
 128 1157 366 1456 799 1456 c 0
 878 1456 947 1446 1011 1427 c 1
 1052 1526 l 2
 1065 1557 1092 1571 1119 1571 c 0
 1154 1571 1187 1548 1187 1509 c 0
 1187 1500 1185 1490 1181 1479 c 2
 1138 1373 l 1
1282 712 m 0
 1282 911 1215 1110 1061 1211 c 1
 659 133 l 1
 701 120 748 114 799 114 c 0
 1140 114 1282 399 1282 712 c 0
316 712 m 0
 316 511 384 301 549 205 c 1
 949 1288 l 1
 904 1303 854 1311 799 1311 c 0
 455 1311 316 1025 316 712 c 0
EndSplineSet
EndChar

StartChar: P
Encoding: 80 80 46
Width: 1278
VWidth: 0
Flags: W
LayerCount: 2
Fore
SplineSet
373 624 m 1
 373 84 l 2
 373 27 328 0 284 0 c 0
 239 0 195 28 195 84 c 2
 195 1339 l 2
 195 1387 234 1426 285 1426 c 2
 644 1426 l 2
 934 1426 1211 1324 1211 1026 c 0
 1211 722 929 624 636 624 c 2
 373 624 l 1
668 764 m 2
 673 764 678 764 683 764 c 0
 869 764 1025 838 1025 1026 c 0
 1025 1210 872 1286 689 1286 c 0
 683 1286 677 1286 671 1286 c 2
 373 1286 l 1
 373 764 l 1
 668 764 l 2
EndSplineSet
EndChar

StartChar: Q
Encoding: 81 81 47
Width: 1597
VWidth: 0
Flags: W
LayerCount: 2
Fore
SplineSet
128 702 m 0
 128 1129 361 1438 799 1438 c 0
 1233 1438 1467 1133 1467 704 c 0
 1467 489 1374 289 1223 142 c 1
 1449 142 l 2
 1497 142 1521 107 1521 72 c 0
 1521 35 1497 1 1449 0 c 1
 979 0 l 1
 910 -15 859 -22 799 -22 c 0
 375 -22 128 264 128 702 c 0
319 702 m 0
 319 428 447 119 799 119 c 0
 1138 119 1279 409 1279 702 c 0
 1279 1000 1140 1293 799 1293 c 0
 461 1293 319 1011 319 702 c 0
EndSplineSet
EndChar

StartChar: R
Encoding: 82 82 48
Width: 1385
VWidth: 0
Flags: W
LayerCount: 2
Fore
SplineSet
200 1340 m 2
 200 1387 240 1426 289 1426 c 2
 717 1426 l 2
 962 1426 1223 1357 1223 1056 c 0
 1223 899 1118 785 931 744 c 1
 931 740 l 1
 1124 710 1167 597 1187 426 c 1
 1198 322 1206 237 1211 178 c 2
 1218 87 l 1
 1218 30 1176 0 1128 0 c 0
 1085 0 1041 26 1036 81 c 0
 988 574 1016 662 714 662 c 2
 377 662 l 1
 377 84 l 2
 377 27 332 0 288 0 c 0
 244 0 200 28 200 84 c 2
 200 1340 l 2
639 801 m 2
 819 801 1038 816 1038 1044 c 0
 1038 1269 846 1286 703 1286 c 2
 377 1286 l 1
 377 801 l 1
 639 801 l 2
EndSplineSet
EndChar

StartChar: S
Encoding: 83 83 49
Width: 1274
VWidth: 0
Flags: W
LayerCount: 2
Fore
SplineSet
328 1074 m 0
 328 899 532 840 736 779 c 1
 963 707 1164 627 1164 366 c 0
 1164 135 940 -22 629 -22 c 0
 410 -22 239 60 136 166 c 0
 125 177 121 191 121 206 c 0
 121 243 154 287 183 287 c 0
 207 287 232 265 256 248 c 0
 346 183 459 124 647 124 c 0
 836 124 979 216 979 355 c 0
 979 549 776 596 573 661 c 0
 351 732 145 831 145 1064 c 0
 145 1294 379 1438 640 1438 c 0
 839 1438 994 1376 1115 1247 c 0
 1126 1235 1128 1220 1128 1203 c 0
 1128 1173 1109 1131 1060 1131 c 0
 1041 1131 1019 1143 995 1167 c 1
 909 1231 806 1289 656 1289 c 0
 503 1289 328 1215 328 1074 c 0
EndSplineSet
EndChar

StartChar: T
Encoding: 84 84 51
Width: 1158
VWidth: 0
Flags: W
LayerCount: 2
Fore
SplineSet
101 1280 m 2
 52 1280 27 1317 27 1353 c 0
 27 1390 52 1426 101 1426 c 2
 1056 1426 l 2
 1107 1426 1131 1390 1131 1353 c 0
 1131 1317 1105 1280 1056 1280 c 2
 671 1280 l 1
 671 85 l 2
 671 29 626 0 582 0 c 0
 537 0 493 29 493 85 c 2
 493 1280 l 1
 101 1280 l 2
EndSplineSet
EndChar

StartChar: Thorn
Encoding: 222 222 52
Width: 1278
VWidth: 0
Flags: W
LayerCount: 2
Fore
SplineSet
373 410 m 1
 373 83 l 2
 373 26 328 -1 284 -1 c 0
 239 -1 195 27 195 83 c 2
 195 1350 l 2
 195 1406 239 1434 283 1434 c 0
 328 1434 373 1405 373 1350 c 2
 373 1231 l 1
 644 1231 l 2
 927 1231 1211 1141 1211 821 c 0
 1211 497 924 410 636 410 c 2
 373 410 l 1
668 550 m 2
 861 550 1025 609 1025 821 c 0
 1025 1032 862 1091 671 1091 c 2
 373 1091 l 1
 373 550 l 1
 668 550 l 2
EndSplineSet
EndChar

StartChar: U
Encoding: 85 85 53
Width: 1490
VWidth: 0
Flags: W
LayerCount: 2
Fore
SplineSet
189 1341 m 2
 189 1397 233 1426 279 1426 c 0
 323 1426 367 1398 367 1341 c 2
 367 500 l 2
 367 242 556 124 745 124 c 0
 934 124 1124 242 1124 500 c 2
 1124 1341 l 2
 1124 1397 1168 1426 1214 1426 c 0
 1258 1426 1302 1398 1302 1341 c 2
 1302 496 l 2
 1302 145 1033 -22 745 -22 c 0
 457 -22 189 145 189 496 c 2
 189 1341 l 2
EndSplineSet
EndChar

StartChar: V
Encoding: 86 86 58
Width: 1289
VWidth: 0
Flags: W
LayerCount: 2
Fore
SplineSet
649 153 m 1
 652 153 l 1
 1080 1366 l 1
 1095 1405 1126 1426 1161 1426 c 0
 1204 1426 1244 1395 1244 1351 c 0
 1244 1342 1243 1335 1239 1324 c 2
 791 107 l 1
 764 27 712 0 644 0 c 0
 581 0 530 24 501 107 c 1
 48 1318 l 2
 44 1326 43 1336 43 1344 c 0
 43 1392 90 1427 135 1427 c 0
 170 1427 201 1407 214 1370 c 2
 649 153 l 1
EndSplineSet
EndChar

StartChar: W
Encoding: 87 87 59
Width: 2055
VWidth: 0
Flags: W
LayerCount: 2
Fore
SplineSet
1024 1254 m 1
 658 112 l 1
 637 40 570 0 505 0 c 0
 444 0 387 35 366 112 c 2
 43 1318 l 1
 40 1325 39 1333 39 1341 c 0
 39 1391 92 1426 137 1426 c 0
 169 1426 196 1410 207 1371 c 2
 519 153 l 1
 900 1322 l 1
 919 1391 971 1426 1026 1426 c 0
 1081 1426 1134 1391 1155 1322 c 1
 1551 154 l 1
 1860 1366 l 2
 1871 1409 1901 1426 1934 1426 c 0
 1977 1426 2021 1395 2021 1350 c 0
 2021 1343 2020 1335 2017 1327 c 2
 1689 113 l 1
 1667 37 1609 0 1545 0 c 0
 1482 0 1422 37 1399 113 c 1
 1024 1254 l 1
EndSplineSet
EndChar

StartChar: X
Encoding: 88 88 60
Width: 1274
VWidth: 0
Flags: W
LayerCount: 2
Fore
SplineSet
222 41 m 2
 202 12 176 0 151 0 c 0
 108 0 68 35 68 76 c 0
 68 91 73 106 84 121 c 2
 529 734 l 1
 114 1303 l 2
 105 1315 100 1328 100 1343 c 0
 100 1388 149 1426 197 1426 c 0
 225 1426 252 1414 272 1385 c 2
 648 844 l 1
 1037 1385 l 2
 1058 1414 1083 1426 1110 1426 c 0
 1153 1426 1190 1393 1190 1353 c 0
 1190 1338 1186 1325 1175 1310 c 2
 746 734 l 1
 1186 126 l 2
 1195 113 1200 98 1200 85 c 0
 1200 40 1151 0 1104 0 c 0
 1076 0 1052 13 1033 40 c 2
 628 618 l 1
 222 41 l 2
EndSplineSet
EndChar

StartChar: Y
Encoding: 89 89 61
Width: 1278
VWidth: 0
Flags: W
LayerCount: 2
Fore
SplineSet
730 607 m 1
 730 85 l 2
 730 29 685 0 640 0 c 0
 595 0 551 29 551 85 c 2
 551 602 l 1
 87 1307 l 2
 79 1319 76 1332 75 1344 c 1
 75 1389 126 1426 174 1426 c 0
 203 1426 232 1413 249 1382 c 1
 652 746 l 1
 654 746 l 1
 1058 1383 l 1
 1075 1414 1102 1426 1130 1426 c 0
 1171 1426 1212 1398 1212 1358 c 1
 1211 1346 1208 1333 1200 1320 c 2
 730 607 l 1
EndSplineSet
EndChar

StartChar: Z
Encoding: 90 90 64
Width: 1165
VWidth: 0
Flags: W
LayerCount: 2
Fore
SplineSet
179 0 m 2
 103 0 71 44 71 90 c 0
 71 113 78 134 91 153 c 2
 876 1281 l 1
 152 1281 l 2
 104 1281 79 1317 79 1354 c 0
 79 1390 103 1426 152 1426 c 2
 1006 1426 l 2
 1062 1426 1097 1391 1097 1343 c 0
 1097 1322 1090 1297 1073 1273 c 2
 285 145 l 1
 1014 145 l 2
 1063 145 1088 109 1088 73 c 0
 1088 36 1063 0 1014 0 c 2
 179 0 l 2
EndSplineSet
EndChar

StartChar: a
Encoding: 97 97 66
Width: 1043
VWidth: 0
Flags: W
LayerCount: 2
Fore
SplineSet
739 688 m 2
 739 841 647 889 511 889 c 0
 375 889 301 852 222 805 c 0
 211 798 199 795 187 795 c 0
 154 795 128 821 128 852 c 0
 128 867 135 881 148 894 c 0
 230 974 359 1013 516 1013 c 0
 747 1013 894 912 894 673 c 2
 893 71 l 2
 893 24 854 0 815 0 c 0
 778 0 740 21 740 68 c 2
 740 160 l 1
 684 43 549 -22 411 -22 c 0
 220 -22 70 86 70 276 c 0
 70 520 295 604 626 604 c 0
 661 604 702 602 739 601 c 1
 739 688 l 2
738 484 m 1
 559 476 232 514 232 280 c 0
 232 159 329 105 447 102 c 1
 605 105 730 197 738 397 c 1
 738 484 l 1
EndSplineSet
EndChar

StartChar: acute
Encoding: 180 180 69
Width: 569
VWidth: 0
Flags: W
LayerCount: 2
Fore
SplineSet
161 1120 m 2
 146 1109 133 1103 120 1103 c 0
 97 1103 83 1120 83 1141 c 0
 83 1150 85 1162 95 1173 c 2
 364 1474 l 2
 379 1491 396 1499 415 1499 c 0
 460 1499 505 1455 505 1412 c 0
 505 1396 499 1379 483 1367 c 2
 161 1120 l 2
EndSplineSet
EndChar

StartChar: ae
Encoding: 230 230 71
Width: 1699
VWidth: 0
Flags: W
LayerCount: 2
Fore
SplineSet
739 690 m 2
 739 843 647 891 511 891 c 0
 373 891 302 853 222 805 c 0
 209 797 198 794 187 794 c 0
 155 794 129 821 129 852 c 0
 129 867 135 881 148 894 c 0
 229 975 359 1020 516 1020 c 0
 679 1020 790 965 841 840 c 1
 914 948 1025 1020 1174 1020 c 0
 1461 1020 1584 804 1592 526 c 0
 1592 495 1574 463 1529 463 c 2
 904 463 l 1
 907 262 987 100 1199 100 c 0
 1299 100 1399 151 1463 199 c 0
 1478 210 1492 214 1504 214 c 0
 1533 214 1553 191 1553 163 c 0
 1553 72 1349 -28 1157 -28 c 0
 991 -28 879 64 815 199 c 1
 738 35 564 -28 419 -28 c 0
 220 -28 70 84 70 276 c 0
 70 521 295 611 626 611 c 1
 661 610 702 609 739 608 c 1
 739 690 l 2
1436 579 m 1
 1423 763 1344 898 1176 898 c 0
 1008 898 920 748 907 579 c 1
 1436 579 l 1
738 491 m 1
 559 483 232 514 232 280 c 0
 232 154 329 95 447 92 c 1
 605 95 730 195 738 397 c 1
 738 491 l 1
EndSplineSet
EndChar

StartChar: ampersand
Encoding: 38 38 74
Width: 1513
VWidth: 0
Flags: W
LayerCount: 2
Fore
SplineSet
1215 881 m 1
 1219 928 1253 948 1288 948 c 0
 1327 948 1368 921 1368 874 c 2
 1368 867 l 2
 1368 865 1368 863 1367 861 c 0
 1353 720 1330 486 1223 306 c 1
 1382 134 l 2
 1397 117 1403 99 1403 80 c 0
 1403 35 1363 -6 1319 -6 c 0
 1299 -6 1278 1 1260 22 c 2
 1111 186 l 1
 990 49 848 -29 656 -29 c 0
 355 -29 104 131 104 406 c 0
 104 634 297 745 473 865 c 1
 377 969 274 1088 274 1232 c 0
 274 1420 449 1509 624 1509 c 0
 797 1509 979 1426 979 1239 c 0
 979 1067 844 951 707 849 c 1
 1115 415 l 1
 1176 546 1212 733 1215 881 c 1
576 758 m 1
 478 697 282 553 282 431 c 0
 282 228 458 110 647 110 c 0
 802 110 911 177 1017 286 c 1
 576 758 l 1
449 1230 m 0
 449 1131 536 1021 606 948 c 1
 691 1027 806 1110 806 1230 c 0
 806 1327 718 1373 630 1373 c 0
 537 1373 449 1333 449 1230 c 0
EndSplineSet
EndChar

StartChar: asciicircum
Encoding: 94 94 77
Width: 1340
VWidth: 0
Flags: W
LayerCount: 2
Fore
SplineSet
668 1235 m 1
 319 534 l 1
 306 503 281 492 257 492 c 0
 222 492 187 517 187 556 c 0
 187 565 189 574 193 584 c 1
 584 1340 l 2
 603 1376 635 1395 668 1395 c 0
 703 1395 734 1376 753 1340 c 2
 1142 584 l 1
 1146 574 1148 565 1148 557 c 0
 1148 520 1113 492 1077 492 c 0
 1052 492 1029 505 1015 534 c 2
 668 1235 l 1
EndSplineSet
EndChar

StartChar: asciitilde
Encoding: 126 126 78
Width: 1340
VWidth: 0
Flags: W
LayerCount: 2
Fore
SplineSet
779 1297 m 0
 804 1297 825 1307 842 1332 c 0
 857 1355 875 1363 891 1363 c 0
 916 1363 937 1340 937 1315 c 0
 937 1308 936 1303 933 1296 c 0
 905 1225 855 1180 767 1180 c 0
 689 1180 598 1249 527 1249 c 0
 498 1249 474 1237 451 1209 c 0
 438 1194 424 1186 407 1186 c 0
 382 1186 360 1205 360 1230 c 0
 360 1237 362 1244 366 1252 c 0
 401 1324 452 1363 533 1363 c 0
 624 1363 713 1297 779 1297 c 0
EndSplineSet
EndChar

StartChar: asterisk
Encoding: 42 42 79
Width: 1105
VWidth: 0
Flags: W
LayerCount: 2
Fore
SplineSet
654 1139 m 1
 898 1148 l 1
 934 1148 962 1122 962 1086 c 0
 962 1053 934 1025 898 1025 c 1
 652 1034 l 1
 778 830 l 2
 784 819 786 808 787 797 c 1
 787 768 763 737 724 737 c 0
 701 737 680 748 669 768 c 2
 551 979 l 1
 434 768 l 2
 423 749 401 737 378 737 c 0
 339 737 315 770 315 797 c 0
 315 808 317 819 324 830 c 2
 451 1034 l 1
 207 1025 l 1
 172 1025 143 1053 143 1086 c 0
 143 1122 171 1148 207 1148 c 1
 448 1139 l 1
 322 1343 l 2
 316 1353 313 1364 313 1375 c 0
 313 1406 339 1437 376 1437 c 0
 399 1437 420 1426 432 1405 c 2
 551 1189 l 1
 670 1405 l 1
 684 1426 703 1437 726 1437 c 0
 763 1437 789 1406 789 1374 c 0
 789 1362 786 1352 781 1343 c 2
 654 1139 l 1
EndSplineSet
EndChar

StartChar: at
Encoding: 64 64 80
Width: 1638
VWidth: 0
Flags: W
LayerCount: 2
Fore
SplineSet
538 604 m 0
 538 505 596 414 695 414 c 0
 794 414 917 476 956 596 c 2
 1037 844 l 2
 1043 863 1046 881 1046 898 c 0
 1046 997 949 1057 877 1057 c 0
 673 1057 538 782 538 604 c 0
1087 123 m 0
 1095 126 1104 127 1113 127 c 0
 1148 127 1165 102 1165 75 c 0
 1165 54 1154 33 1130 26 c 0
 1019 -8 911 -25 807 -25 c 0
 380 -25 58 260 58 740 c 0
 58 1235 491 1512 891 1512 c 0
 1231 1512 1549 1310 1549 871 c 0
 1549 548 1292 281 1080 281 c 0
 1008 281 933 314 909 386 c 1
 846 321 750 283 661 283 c 0
 481 283 374 423 374 594 c 0
 374 865 573 1193 870 1193 c 0
 965 1193 1058 1148 1100 1061 c 1
 1109 1091 l 2
 1119 1126 1153 1143 1184 1143 c 0
 1216 1143 1246 1124 1246 1088 c 0
 1246 1079 1245 1071 1242 1063 c 2
 1078 558 l 2
 1064 514 1054 477 1054 449 c 0
 1054 417 1067 398 1110 398 c 0
 1267 398 1417 649 1417 870 c 0
 1417 1234 1169 1399 894 1399 c 0
 561 1399 192 1155 192 728 c 0
 192 299 484 82 825 82 c 0
 910 82 998 96 1087 123 c 0
EndSplineSet
EndChar

StartChar: b
Encoding: 98 98 82
Width: 1157
VWidth: 0
Flags: W
LayerCount: 2
Fore
SplineSet
292 71 m 1
 289 24 251 0 214 0 c 0
 175 0 138 24 138 75 c 2
 138 1352 l 2
 138 1400 179 1425 219 1425 c 0
 259 1425 298 1401 298 1352 c 2
 298 830 l 1
 370 955 515 1013 651 1013 c 0
 944 1013 1071 768 1071 500 c 0
 1071 243 948 -22 657 -22 c 0
 508 -22 381 37 292 173 c 1
 292 71 l 1
298 514 m 0
 298 288 374 102 624 102 c 0
 847 102 901 328 901 508 c 0
 901 697 828 889 608 889 c 0
 381 889 298 713 298 514 c 0
EndSplineSet
EndChar

StartChar: backslash
Encoding: 92 92 83
Width: 588
VWidth: 0
Flags: W
LayerCount: 2
Fore
SplineSet
-15 1407 m 2
 -18 1418 -20 1427 -20 1434 c 0
 -20 1475 15 1499 51 1499 c 0
 79 1499 108 1484 120 1449 c 2
 603 -14 l 2
 606 -23 607 -32 607 -41 c 0
 607 -82 574 -106 539 -106 c 0
 510 -106 483 -91 472 -56 c 2
 -15 1407 l 2
EndSplineSet
EndChar

StartChar: bar
Encoding: 124 124 84
Width: 455
VWidth: 0
Flags: W
LayerCount: 2
Fore
SplineSet
158 1409 m 2
 158 1456 193 1478 228 1478 c 0
 263 1478 297 1456 297 1409 c 2
 297 -377 l 2
 297 -424 262 -447 227 -447 c 0
 192 -447 158 -424 158 -377 c 2
 158 1409 l 2
EndSplineSet
EndChar

StartChar: braceleft
Encoding: 123 123 85
Width: 611
VWidth: 0
Flags: W
LayerCount: 2
Fore
SplineSet
537 -81 m 2
 576 -81 594 -113 594 -144 c 0
 594 -176 576 -207 537 -207 c 2
 419 -207 l 2
 327 -207 228 -115 228 21 c 2
 228 318 l 2
 228 464 207 553 83 566 c 1
 38 566 16 600 16 633 c 0
 16 668 38 701 83 701 c 1
 206 714 228 804 228 952 c 2
 228 1252 l 2
 228 1387 327 1479 419 1479 c 2
 537 1479 l 2
 576 1479 594 1447 594 1416 c 0
 594 1384 576 1353 537 1353 c 2
 474 1353 l 2
 417 1353 391 1299 391 1203 c 2
 391 915 l 2
 391 721 274 660 248 634 c 1
 275 621 391 544 391 355 c 2
 391 70 l 2
 391 -26 417 -81 474 -81 c 2
 537 -81 l 2
EndSplineSet
EndChar

StartChar: braceright
Encoding: 125 125 86
Width: 611
VWidth: 0
Flags: W
LayerCount: 2
Fore
SplineSet
135 -81 m 2
 192 -81 218 -26 218 70 c 2
 218 355 l 2
 218 545 335 620 360 634 c 1
 336 658 218 721 218 915 c 2
 218 1203 l 2
 218 1299 192 1353 135 1353 c 2
 72 1353 l 2
 33 1353 15 1384 15 1416 c 0
 15 1447 33 1479 72 1479 c 2
 189 1479 l 2
 282 1479 381 1387 381 1252 c 2
 381 952 l 2
 381 804 402 714 526 701 c 1
 570 701 593 668 593 633 c 0
 593 600 570 566 526 566 c 1
 402 553 381 464 381 318 c 2
 381 21 l 2
 381 -115 282 -207 189 -207 c 2
 72 -207 l 2
 33 -207 15 -176 15 -144 c 0
 15 -113 33 -81 72 -81 c 2
 135 -81 l 2
EndSplineSet
EndChar

StartChar: bracketleft
Encoding: 91 91 87
Width: 611
VWidth: 0
Flags: W
LayerCount: 2
Fore
SplineSet
173 1346 m 2
 173 1390 208 1426 255 1426 c 2
 438 1426 l 2
 481 1426 500 1396 500 1365 c 0
 500 1334 479 1303 438 1303 c 2
 336 1303 l 1
 336 -76 l 1
 438 -76 l 2
 481 -76 501 -106 501 -137 c 0
 501 -168 479 -200 438 -200 c 2
 255 -200 l 2
 208 -200 173 -164 173 -120 c 2
 173 1346 l 2
EndSplineSet
EndChar

StartChar: bracketright
Encoding: 93 93 88
Width: 611
VWidth: 0
Flags: W
LayerCount: 2
Fore
SplineSet
437 -120 m 2
 437 -164 400 -200 355 -200 c 2
 171 -200 l 2
 130 -200 109 -168 109 -137 c 0
 109 -106 130 -76 171 -76 c 2
 274 -76 l 1
 274 1303 l 1
 171 1303 l 2
 130 1303 109 1334 109 1365 c 0
 109 1396 128 1426 171 1426 c 2
 355 1426 l 2
 400 1426 437 1390 437 1346 c 2
 437 -120 l 2
EndSplineSet
EndChar

StartChar: breve
Encoding: 728 728 89
Width: 569
VWidth: 0
Flags: W
LayerCount: 2
Fore
SplineSet
285 1249 m 0
 158 1249 63 1305 20 1401 c 0
 16 1410 14 1418 14 1426 c 0
 14 1454 37 1471 64 1471 c 0
 82 1471 100 1462 112 1445 c 0
 155 1384 196 1362 285 1362 c 0
 373 1362 413 1384 458 1445 c 0
 471 1462 487 1471 506 1471 c 0
 533 1471 556 1454 556 1426 c 0
 556 1418 554 1410 550 1401 c 0
 507 1305 412 1249 285 1249 c 0
EndSplineSet
EndChar

StartChar: brokenbar
Encoding: 166 166 90
Width: 455
VWidth: 0
Flags: W
LayerCount: 2
Fore
SplineSet
158 1291 m 2
 158 1338 193 1361 228 1361 c 0
 263 1361 297 1338 297 1291 c 2
 297 705 l 2
 297 665 271 641 240 636 c 1
 269 631 297 607 297 567 c 2
 297 -47 l 2
 297 -94 262 -117 227 -117 c 0
 192 -117 158 -94 158 -47 c 2
 158 567 l 2
 158 608 184 628 214 636 c 1
 183 641 158 664 158 705 c 2
 158 1291 l 2
EndSplineSet
EndChar

StartChar: bullet
Encoding: 8226 8226 91
Width: 1024
VWidth: 0
Flags: W
LayerCount: 2
Fore
SplineSet
881 712 m 0
 881 520 715 357 510 357 c 0
 309 357 143 520 143 712 c 0
 143 909 309 1068 510 1068 c 0
 715 1068 881 909 881 712 c 0
EndSplineSet
EndChar

StartChar: c
Encoding: 99 99 92
Width: 971
VWidth: 0
Flags: W
LayerCount: 2
Fore
SplineSet
90 496 m 0
 90 775 262 1013 563 1013 c 0
 689 1013 866 963 866 883 c 0
 866 852 845 824 810 824 c 0
 802 824 793 826 783 830 c 1
 716 869 648 888 577 888 c 0
 384 888 259 735 259 491 c 0
 259 303 339 102 576 102 c 0
 649 102 721 126 802 167 c 0
 812 171 821 173 830 173 c 0
 862 173 883 147 883 116 c 0
 883 35 686 -22 554 -22 c 0
 251 -22 90 214 90 496 c 0
EndSplineSet
EndChar

StartChar: caron
Encoding: 711 711 93
Width: 569
VWidth: 0
Flags: W
LayerCount: 2
Fore
SplineSet
10 1432 m 2
 -2 1449 -6 1464 -6 1477 c 0
 -6 1508 19 1532 50 1532 c 0
 70 1532 92 1522 111 1497 c 2
 285 1264 l 1
 458 1497 l 2
 477 1522 498 1532 518 1532 c 0
 549 1532 574 1508 574 1477 c 0
 574 1462 569 1447 558 1432 c 2
 370 1165 l 2
 345 1130 314 1115 285 1115 c 0
 254 1115 222 1132 199 1165 c 2
 10 1432 l 2
EndSplineSet
EndChar

StartChar: cedilla
Encoding: 184 184 95
Width: 569
VWidth: 0
Flags: W
LayerCount: 2
Fore
SplineSet
252 9 m 1
 311 9 l 1
 277 -103 l 1
 286 -103 294 -102 303 -102 c 0
 398 -102 489 -130 489 -244 c 0
 489 -344 392 -392 300 -392 c 0
 189 -392 69 -361 69 -318 c 0
 69 -302 79 -286 95 -286 c 0
 98 -286 103 -287 108 -289 c 0
 159 -308 209 -324 269 -324 c 0
 341 -324 363 -294 363 -241 c 0
 363 -188 307 -168 252 -168 c 0
 248 -168 243 -169 239 -169 c 0
 215 -169 204 -156 204 -139 c 0
 204 -134 205 -129 207 -123 c 2
 252 9 l 1
EndSplineSet
EndChar

StartChar: cent
Encoding: 162 162 96
Width: 1031
VWidth: 0
Flags: W
LayerCount: 2
Fore
SplineSet
83 496 m 0
 83 756 247 984 495 1016 c 1
 495 1227 l 2
 495 1270 527 1291 559 1291 c 0
 591 1291 622 1270 622 1227 c 2
 622 1017 l 1
 720 1009 882 970 882 905 c 0
 882 876 861 843 832 843 c 0
 828 843 825 843 823 844 c 0
 738 873 669 892 597 892 c 0
 405 892 252 765 252 498 c 0
 252 258 378 106 591 106 c 0
 664 106 750 121 842 158 c 0
 847 159 851 160 856 160 c 0
 887 160 909 130 909 99 c 0
 909 23 728 -18 622 -26 c 1
 622 -227 l 2
 622 -270 590 -291 558 -291 c 0
 526 -291 495 -270 495 -227 c 2
 495 -25 l 1
 224 2 83 232 83 496 c 0
EndSplineSet
EndChar

StartChar: circumflex
Encoding: 710 710 97
Width: 569
VWidth: 0
Flags: W
LayerCount: 2
Fore
SplineSet
199 1474 m 2
 222 1507 251 1524 284 1524 c 0
 315 1524 343 1509 370 1474 c 1
 558 1207 l 2
 569 1191 575 1177 575 1162 c 0
 575 1131 551 1109 520 1109 c 0
 500 1109 478 1119 458 1143 c 1
 285 1376 l 1
 111 1143 l 2
 92 1117 67 1108 48 1108 c 0
 17 1108 -6 1130 -6 1161 c 0
 -6 1176 -2 1191 10 1207 c 2
 199 1474 l 2
EndSplineSet
EndChar

StartChar: colon
Encoding: 58 58 98
Width: 584
VWidth: 0
Flags: W
LayerCount: 2
Fore
SplineSet
184 902 m 0
 184 952 223 1000 292 1000 c 0
 360 1000 399 952 399 902 c 0
 399 851 360 805 292 805 c 0
 223 805 184 851 184 902 c 0
184 97 m 0
 184 145 223 194 292 194 c 0
 360 194 399 145 399 97 c 0
 399 47 360 -1 292 -1 c 0
 223 -1 184 47 184 97 c 0
EndSplineSet
EndChar

StartChar: comma
Encoding: 44 44 99
Width: 584
VWidth: 0
Flags: W
LayerCount: 2
Fore
SplineSet
249 -240 m 1
 111 -240 l 1
 204 185 l 1
 401 185 l 1
 249 -240 l 1
EndSplineSet
EndChar

StartChar: copyright
Encoding: 169 169 100
Width: 1656
VWidth: 0
Flags: W
LayerCount: 2
Fore
SplineSet
837 127 m 0
 454 127 144 424 144 790 c 0
 144 1155 454 1453 837 1453 c 0
 1217 1453 1526 1155 1526 790 c 0
 1526 424 1217 127 837 127 c 0
263 790 m 0
 263 470 505 239 837 239 c 0
 1167 239 1406 470 1406 790 c 0
 1406 1108 1167 1340 837 1340 c 0
 505 1340 263 1108 263 790 c 0
1043 547 m 0
 1048 550 1054 552 1063 552 c 0
 1086 552 1104 532 1104 508 c 0
 1104 436 927 399 848 399 c 0
 648 399 460 537 460 796 c 0
 460 1055 641 1186 845 1186 c 0
 919 1186 1116 1151 1116 1083 c 0
 1116 1058 1098 1032 1071 1032 c 0
 1066 1032 1060 1034 1052 1037 c 1
 991 1070 921 1087 857 1087 c 0
 708 1087 582 998 582 798 c 0
 582 603 716 497 867 497 c 0
 927 497 984 515 1043 547 c 0
EndSplineSet
EndChar

StartChar: currency
Encoding: 164 164 101
Width: 1162
VWidth: 0
Flags: W
LayerCount: 2
Fore
SplineSet
586 183 m 0
 478 183 390 213 322 262 c 1
 235 175 l 2
 224 164 212 159 199 159 c 0
 172 159 148 183 148 211 c 0
 148 224 153 236 164 247 c 2
 249 332 l 1
 188 408 158 504 158 601 c 0
 158 697 187 790 247 866 c 1
 164 950 l 2
 153 961 148 973 148 986 c 0
 148 1013 172 1037 199 1037 c 0
 212 1037 224 1032 235 1021 c 2
 318 937 l 1
 386 988 474 1020 586 1020 c 0
 697 1020 786 988 854 937 c 1
 938 1021 l 2
 949 1032 961 1037 974 1037 c 0
 1001 1037 1025 1013 1025 985 c 0
 1025 974 1021 961 1010 950 c 2
 925 866 l 1
 985 790 1014 696 1014 601 c 0
 1014 504 983 408 923 332 c 1
 1010 247 l 2
 1021 236 1025 223 1025 211 c 0
 1025 182 999 159 971 159 c 0
 960 159 949 165 939 175 c 2
 850 263 l 1
 782 212 695 183 586 183 c 0
586 918 m 0
 383 918 281 758 281 601 c 0
 281 443 383 285 586 285 c 0
 789 285 891 443 891 601 c 0
 891 758 789 918 586 918 c 0
EndSplineSet
EndChar

StartChar: d
Encoding: 100 100 102
Width: 1162
VWidth: 0
Flags: W
LayerCount: 2
Fore
SplineSet
1024 75 m 2
 1024 24 985 0 945 0 c 0
 905 0 867 25 864 73 c 1
 864 118 l 2
 864 130 864 141 863 150 c 1
 863 165 l 1
 771 32 653 -22 505 -22 c 0
 214 -22 91 242 91 500 c 0
 91 768 215 1013 511 1013 c 0
 647 1013 792 956 864 831 c 1
 864 1352 l 2
 864 1401 903 1425 943 1425 c 0
 983 1425 1024 1400 1024 1352 c 2
 1024 75 l 2
554 889 m 0
 334 889 260 694 260 508 c 0
 260 328 315 102 538 102 c 0
 789 102 860 290 860 514 c 0
 860 711 781 889 554 889 c 0
EndSplineSet
EndChar

StartChar: dagger
Encoding: 8224 8224 103
Width: 1169
VWidth: 0
Flags: W
LayerCount: 2
Fore
SplineSet
661 982 m 1
 661 74 l 2
 661 25 623 0 584 0 c 0
 545 0 508 25 508 74 c 2
 508 982 l 1
 219 982 l 2
 178 982 157 1014 157 1049 c 0
 157 1084 178 1117 219 1117 c 2
 508 1117 l 1
 508 1403 l 2
 508 1454 545 1478 584 1478 c 0
 623 1478 661 1452 661 1403 c 2
 661 1117 l 1
 945 1117 l 2
 988 1117 1009 1083 1009 1050 c 0
 1009 1015 988 982 945 982 c 2
 661 982 l 1
EndSplineSet
EndChar

StartChar: daggerdbl
Encoding: 8225 8225 104
Width: 1169
VWidth: 0
Flags: W
LayerCount: 2
Fore
SplineSet
660 350 m 1
 660 73 l 2
 660 24 623 -1 584 -1 c 0
 547 -1 509 24 509 73 c 2
 509 350 l 1
 222 350 l 2
 179 350 158 383 158 416 c 0
 158 449 179 483 222 483 c 2
 509 483 l 1
 509 990 l 1
 222 990 l 2
 179 990 158 1023 158 1056 c 0
 158 1089 179 1123 222 1123 c 2
 509 1123 l 1
 509 1403 l 2
 509 1454 547 1478 584 1478 c 0
 623 1478 660 1454 660 1403 c 2
 660 1123 l 1
 942 1123 l 2
 986 1123 1008 1090 1008 1057 c 0
 1008 1022 986 990 942 990 c 2
 660 990 l 1
 660 483 l 1
 942 483 l 2
 986 483 1008 450 1008 417 c 0
 1008 382 986 350 942 350 c 2
 660 350 l 1
EndSplineSet
EndChar

StartChar: degree
Encoding: 176 176 105
Width: 819
VWidth: 0
Flags: W
LayerCount: 2
Fore
SplineSet
716 1108 m 0
 716 945 577 814 410 814 c 0
 241 814 104 945 104 1108 c 0
 104 1270 239 1403 410 1403 c 0
 577 1403 716 1270 716 1108 c 0
205 1108 m 0
 205 993 291 911 410 911 c 0
 526 911 615 993 615 1108 c 0
 615 1220 525 1306 408 1306 c 0
 290 1306 205 1220 205 1108 c 0
EndSplineSet
EndChar

StartChar: dieresis
Encoding: 168 168 106
Width: 569
VWidth: 0
Flags: W
LayerCount: 2
Fore
SplineSet
96 1208 m 0
 30 1208 -7 1255 -7 1303 c 0
 -7 1350 30 1396 96 1396 c 0
 163 1396 200 1350 200 1303 c 0
 200 1255 163 1208 96 1208 c 0
474 1208 m 0
 407 1208 370 1255 370 1303 c 0
 370 1350 407 1396 474 1396 c 0
 540 1396 577 1350 577 1303 c 0
 577 1255 540 1208 474 1208 c 0
EndSplineSet
EndChar

StartChar: divide
Encoding: 247 247 107
Width: 1340
VWidth: 0
Flags: W
LayerCount: 2
Fore
SplineSet
215 446 m 2
 172 446 151 479 151 514 c 0
 151 549 172 583 215 583 c 2
 1132 583 l 2
 1175 583 1196 549 1196 514 c 0
 1196 479 1175 446 1132 446 c 2
 215 446 l 2
568 84 m 0
 568 129 605 176 671 176 c 0
 738 176 773 129 773 84 c 0
 773 36 738 -9 671 -9 c 0
 604 -9 568 36 568 84 c 0
568 947 m 0
 568 994 605 1039 671 1039 c 0
 738 1039 773 994 773 947 c 0
 773 899 738 854 671 854 c 0
 604 854 568 899 568 947 c 0
EndSplineSet
EndChar

StartChar: dollar
Encoding: 36 36 108
Width: 1274
VWidth: 0
Flags: W
LayerCount: 2
Fore
SplineSet
530 -41 m 1
 397 -38 261 0 179 29 c 0
 138 44 121 73 121 101 c 0
 121 136 144 166 183 166 c 0
 192 166 200 165 208 162 c 0
 316 130 393 99 580 99 c 0
 753 99 924 182 924 342 c 0
 924 456 842 520 732 565 c 0
 456 678 91 693 91 1037 c 0
 91 1259 294 1392 530 1411 c 1
 530 1535 l 2
 530 1571 557 1590 585 1590 c 0
 612 1590 639 1572 639 1535 c 2
 639 1411 l 1
 748 1406 871 1388 968 1351 c 1
 1007 1339 1024 1309 1024 1280 c 0
 1024 1247 1000 1216 961 1216 c 0
 952 1216 944 1217 936 1220 c 1
 831 1244 700 1269 598 1269 c 0
 451 1269 273 1205 273 1057 c 0
 273 674 1109 849 1109 359 c 0
 1109 122 891 -19 639 -40 c 1
 639 -176 l 2
 639 -212 610 -231 582 -231 c 0
 555 -231 530 -215 530 -176 c 2
 530 -41 l 1
EndSplineSet
EndChar

StartChar: dotaccent
Encoding: 729 729 109
Width: 584
VWidth: 0
Flags: W
LayerCount: 2
Fore
SplineSet
177 1361 m 0
 177 1409 215 1458 284 1458 c 0
 353 1458 392 1409 392 1361 c 0
 392 1309 353 1263 284 1263 c 0
 215 1263 177 1309 177 1361 c 0
EndSplineSet
EndChar

StartChar: dotlessi
Encoding: 305 305 110
Width: 474
VWidth: 0
Flags: W
LayerCount: 2
Fore
SplineSet
157 911 m 2
 157 964 198 991 238 991 c 0
 277 991 317 964 317 911 c 2
 317 81 l 2
 317 28 275 0 235 0 c 0
 195 0 157 25 157 81 c 2
 157 911 l 2
EndSplineSet
EndChar

StartChar: e
Encoding: 101 101 111
Width: 1132
VWidth: 0
Flags: W
LayerCount: 2
Fore
SplineSet
1041 526 m 0
 1041 495 1024 468 977 468 c 2
 262 468 l 1
 262 216 418 105 597 102 c 1
 693 102 795 138 894 206 c 0
 909 216 923 220 935 220 c 0
 966 220 986 197 986 169 c 0
 986 154 980 137 964 122 c 0
 855 18 712 -22 584 -22 c 0
 314 -22 94 174 94 496 c 0
 94 771 259 1013 568 1013 c 0
 893 1013 1033 805 1041 526 c 0
884 574 m 1
 871 761 770 889 570 889 c 0
 396 889 279 745 266 574 c 1
 884 574 l 1
EndSplineSet
EndChar

StartChar: eight
Encoding: 56 56 116
Width: 1169
VWidth: 0
Flags: W
LayerCount: 2
Fore
SplineSet
392 737 m 1
 232 754 107 907 107 1064 c 0
 107 1316 339 1438 584 1438 c 0
 832 1438 1062 1316 1062 1064 c 0
 1062 979 1032 911 981 857 c 0
 931 804 860 753 779 737 c 1
 779 735 l 1
 970 682 1084 557 1084 377 c 0
 1084 113 848 -22 584 -22 c 0
 320 -22 85 113 85 377 c 0
 85 464 115 538 168 596 c 0
 221 654 298 714 392 733 c 1
 392 737 l 1
279 1061 m 0
 279 898 408 818 584 818 c 0
 762 818 890 898 890 1061 c 0
 890 1236 734 1307 584 1307 c 0
 436 1307 279 1236 279 1061 c 0
267 383 m 0
 267 202 420 118 584 118 c 0
 750 118 901 202 901 383 c 0
 901 476 864 543 805 587 c 0
 746 631 667 664 584 664 c 0
 501 664 423 631 364 587 c 0
 305 543 267 476 267 383 c 0
EndSplineSet
EndChar

StartChar: ellipsis
Encoding: 8230 8230 117
Width: 1753
VWidth: 0
Flags: W
LayerCount: 2
Fore
SplineSet
184 97 m 0
 184 145 223 194 292 194 c 0
 360 194 399 145 399 97 c 0
 399 47 360 -1 292 -1 c 0
 223 -1 184 47 184 97 c 0
768 97 m 0
 768 145 807 194 876 194 c 0
 945 194 983 145 983 97 c 0
 983 47 945 -1 876 -1 c 0
 807 -1 768 47 768 97 c 0
1353 97 m 0
 1353 145 1391 194 1460 194 c 0
 1529 194 1567 145 1567 97 c 0
 1567 47 1529 -1 1460 -1 c 0
 1391 -1 1353 47 1353 97 c 0
EndSplineSet
EndChar

StartChar: emdash
Encoding: 8212 8212 118
Width: 2048
VWidth: 0
Flags: W
LayerCount: 2
Fore
SplineSet
71 457 m 2
 24 457 2 492 2 528 c 0
 2 563 24 598 71 598 c 2
 1977 598 l 2
 2024 598 2046 562 2046 527 c 0
 2046 492 2024 457 1977 457 c 2
 71 457 l 2
EndSplineSet
EndChar

StartChar: endash
Encoding: 8211 8211 119
Width: 1024
VWidth: 0
Flags: W
LayerCount: 2
Fore
SplineSet
71 457 m 2
 24 457 2 492 2 528 c 0
 2 563 24 598 71 598 c 2
 952 598 l 2
 999 598 1021 562 1021 527 c 0
 1021 492 999 457 952 457 c 2
 71 457 l 2
EndSplineSet
EndChar

StartChar: equal
Encoding: 61 61 120
Width: 1340
VWidth: 0
Flags: W
LayerCount: 2
Fore
SplineSet
227 233 m 2
 188 233 157 263 157 299 c 0
 157 338 188 367 227 367 c 2
 1113 367 l 2
 1152 367 1182 338 1182 299 c 0
 1182 263 1152 233 1113 233 c 2
 227 233 l 2
227 625 m 2
 188 625 157 656 157 692 c 0
 157 731 188 760 227 760 c 2
 1113 760 l 2
 1152 760 1182 731 1182 692 c 0
 1182 656 1152 625 1113 625 c 2
 227 625 l 2
EndSplineSet
EndChar

StartChar: eth
Encoding: 240 240 122
Width: 1169
VWidth: 0
Flags: W
LayerCount: 2
Fore
SplineSet
634 1052 m 2
 591 1052 570 1083 570 1114 c 0
 570 1145 591 1177 634 1177 c 2
 809 1177 l 1
 778 1254 731 1334 674 1401 c 0
 659 1418 653 1436 653 1453 c 0
 653 1494 690 1526 734 1526 c 0
 834 1526 940 1317 994 1177 c 1
 1167 1177 l 2
 1210 1177 1230 1146 1230 1115 c 0
 1230 1084 1208 1052 1167 1052 c 2
 1033 1052 l 1
 1068 903 1081 751 1081 619 c 0
 1081 279 957 -33 556 -33 c 0
 265 -33 89 170 89 438 c 0
 89 702 251 889 529 889 c 0
 689 889 831 820 895 677 c 1
 899 677 l 1
 899 782 888 916 852 1052 c 1
 634 1052 l 2
572 107 m 0
 748 107 874 252 874 420 c 0
 874 616 760 763 549 763 c 0
 350 763 268 604 268 428 c 0
 268 241 376 107 572 107 c 0
EndSplineSet
EndChar

StartChar: exclam
Encoding: 33 33 123
Width: 793
VWidth: 0
Flags: W
LayerCount: 2
Fore
SplineSet
392 181 m 0
 463 181 500 136 500 92 c 0
 500 45 463 0 392 0 c 0
 320 0 283 45 283 92 c 0
 283 136 320 181 392 181 c 0
293 1400 m 1
 293 1452 337 1480 386 1480 c 0
 434 1480 477 1455 477 1400 c 1
 449 438 l 1
 446 385 417 358 384 358 c 0
 352 358 321 385 320 438 c 2
 293 1400 l 1
EndSplineSet
EndChar

StartChar: f
Encoding: 102 102 125
Width: 696
VWidth: 0
Flags: W
LayerCount: 2
Fore
SplineSet
402 874 m 1
 402 79 l 2
 402 27 362 0 321 0 c 0
 282 0 242 26 242 79 c 2
 242 874 l 1
 107 874 l 2
 64 874 43 904 43 933 c 0
 43 962 64 991 107 991 c 2
 242 991 l 1
 242 1102 l 2
 242 1361 339 1449 492 1449 c 0
 543 1449 598 1439 653 1424 c 0
 681 1416 693 1393 693 1370 c 0
 693 1341 674 1312 639 1312 c 0
 594 1312 570 1324 529 1324 c 0
 417 1324 402 1255 402 1023 c 2
 402 991 l 1
 574 991 l 2
 617 991 638 962 638 933 c 0
 638 902 617 874 574 874 c 2
 402 874 l 1
EndSplineSet
EndChar

StartChar: fi
Encoding: 64257 64257 126
Width: 1167
VWidth: 0
Flags: W
LayerCount: 2
Fore
SplineSet
850 867 m 1
 398 867 l 1
 398 80 l 2
 398 28 358 1 317 1 c 0
 278 1 238 27 238 80 c 2
 238 867 l 1
 99 867 l 2
 56 867 35 899 35 930 c 0
 35 961 56 991 99 991 c 2
 238 991 l 1
 238 1102 l 2
 238 1361 335 1449 488 1449 c 0
 539 1449 592 1441 647 1426 c 0
 678 1418 691 1393 691 1368 c 0
 691 1336 671 1304 636 1304 c 0
 595 1304 561 1317 518 1317 c 0
 406 1317 398 1255 398 1023 c 2
 398 991 l 1
 926 991 l 2
 966 991 1010 967 1010 911 c 2
 1010 81 l 2
 1010 28 968 0 928 0 c 0
 888 0 850 25 850 81 c 2
 850 867 l 1
1038 1336 m 0
 1038 1287 998 1244 930 1244 c 0
 862 1244 821 1287 821 1336 c 0
 821 1385 862 1428 930 1428 c 0
 998 1428 1038 1385 1038 1336 c 0
EndSplineSet
EndChar

StartChar: five
Encoding: 53 53 127
Width: 1169
VWidth: 0
Flags: W
LayerCount: 2
Fore
SplineSet
183 1348 m 2
 183 1395 210 1426 266 1426 c 2
 934 1426 l 2
 981 1426 1003 1391 1003 1356 c 0
 1003 1320 981 1285 934 1285 c 2
 324 1285 l 1
 322 783 l 1
 405 872 512 924 640 924 c 0
 904 924 1072 720 1072 457 c 0
 1072 178 880 -22 595 -22 c 0
 391 -22 216 57 152 230 c 0
 145 249 141 261 141 276 c 0
 141 319 171 344 204 344 c 0
 228 344 254 330 273 297 c 1
 321 176 440 118 578 118 c 0
 789 118 889 267 889 464 c 0
 889 649 787 787 610 787 c 0
 466 787 378 706 341 645 c 1
 320 606 285 588 253 588 c 0
 216 588 183 614 183 665 c 2
 183 1348 l 2
EndSplineSet
EndChar

StartChar: fl
Encoding: 64258 64258 128
Width: 1167
VWidth: 0
Flags: W
LayerCount: 2
Fore
SplineSet
398 867 m 1
 398 80 l 2
 398 28 358 1 317 1 c 0
 278 1 238 27 238 80 c 2
 238 867 l 1
 99 867 l 2
 56 867 35 899 35 930 c 0
 35 961 56 991 99 991 c 2
 238 991 l 1
 238 1102 l 2
 238 1358 342 1447 485 1447 c 0
 696 1447 771 1364 779 1353 c 1
 783 1401 820 1425 859 1425 c 0
 899 1425 938 1400 938 1345 c 2
 938 81 l 2
 938 28 896 0 856 0 c 0
 816 0 778 25 778 81 c 2
 778 1331 l 1
 525 1331 l 2
 416 1331 398 1255 398 1026 c 2
 398 991 l 1
 560 991 l 2
 603 991 624 961 624 930 c 0
 624 899 603 867 560 867 c 2
 398 867 l 1
EndSplineSet
EndChar

StartChar: florin
Encoding: 402 402 129
Width: 1169
VWidth: 0
Flags: W
LayerCount: 2
Fore
SplineSet
652 806 m 1
 593 542 536 243 473 -16 c 0
 368 -444 201 -536 50 -536 c 0
 -6 -536 -30 -510 -30 -481 c 0
 -30 -449 2 -415 65 -412 c 0
 138 -409 249 -354 332 -14 c 0
 395 244 451 542 509 806 c 1
 356 806 l 2
 309 806 285 841 285 877 c 0
 285 912 309 947 356 947 c 2
 538 947 l 1
 618 1379 792 1545 992 1545 c 0
 1044 1545 1071 1517 1071 1489 c 0
 1071 1458 1040 1428 975 1428 c 0
 840 1428 759 1291 682 947 c 1
 850 947 l 2
 897 947 920 911 920 876 c 0
 920 841 897 806 850 806 c 2
 652 806 l 1
EndSplineSet
EndChar

StartChar: four
Encoding: 52 52 130
Width: 1169
VWidth: 0
Flags: W
LayerCount: 2
Fore
SplineSet
618 1345 m 1
 653 1402 704 1426 760 1426 c 0
 825 1426 884 1389 884 1303 c 2
 884 448 l 1
 1038 448 l 2
 1082 448 1104 415 1104 382 c 0
 1104 349 1082 316 1038 316 c 2
 883 316 l 1
 883 80 l 2
 883 27 840 0 798 0 c 0
 756 0 711 27 711 80 c 2
 711 316 l 1
 134 316 l 2
 75 316 38 360 38 411 c 0
 38 431 42 454 57 474 c 1
 618 1345 l 1
191 448 m 1
 711 448 l 1
 711 1263 l 1
 191 448 l 1
EndSplineSet
EndChar

StartChar: foursuperior
Encoding: 8308 8308 131
Width: 723
VWidth: 0
Flags: W
LayerCount: 2
Fore
SplineSet
381 1355 m 1
 402 1390 431 1404 463 1404 c 0
 502 1404 533 1381 533 1330 c 2
 533 826 l 1
 626 826 l 2
 651 826 665 809 665 790 c 0
 665 771 653 754 626 754 c 2
 533 754 l 1
 533 613 l 2
 533 581 509 565 485 565 c 0
 460 565 436 581 436 613 c 2
 436 754 l 1
 90 754 l 2
 55 754 33 779 33 808 c 0
 33 821 37 833 45 845 c 2
 381 1355 l 1
122 826 m 1
 436 826 l 1
 436 1309 l 1
 122 826 l 1
EndSplineSet
EndChar

StartChar: fraction
Encoding: 8260 8260 132
Width: 588
VWidth: 0
Flags: W
LayerCount: 2
Fore
SplineSet
116 -24 m 2
 104 -59 77 -74 49 -74 c 0
 14 -74 -20 -50 -20 -9 c 0
 -20 -2 -18 7 -15 18 c 2
 468 1480 l 2
 479 1515 508 1530 537 1530 c 0
 573 1530 608 1506 608 1465 c 0
 608 1458 606 1449 603 1438 c 2
 116 -24 l 2
EndSplineSet
EndChar

StartChar: g
Encoding: 103 103 133
Width: 1162
VWidth: 0
Flags: W
LayerCount: 2
Fore
SplineSet
866 493 m 0
 866 689 790 888 554 888 c 0
 332 888 261 722 261 497 c 0
 261 233 403 115 556 115 c 0
 713 115 867 245 866 493 c 0
867 195 m 1
 795 55 658 0 528 0 c 0
 220 0 88 230 88 491 c 0
 88 774 222 1013 513 1013 c 0
 662 1013 790 963 873 815 c 1
 873 924 l 1
 876 968 912 991 948 991 c 0
 987 991 1023 966 1023 917 c 2
 1023 -21 l 2
 1023 -302 837 -419 553 -419 c 0
 370 -419 267 -375 196 -299 c 0
 183 -286 176 -271 176 -255 c 0
 176 -224 202 -197 237 -197 c 0
 247 -197 260 -200 271 -206 c 0
 345 -249 415 -287 546 -287 c 0
 738 -287 867 -227 867 -33 c 2
 867 195 l 1
EndSplineSet
EndChar

StartChar: germandbls
Encoding: 223 223 134
Width: 1281
VWidth: 0
Flags: W
LayerCount: 2
Fore
SplineSet
541 125 m 0
 534 138 531 150 531 162 c 0
 531 201 566 229 601 229 c 0
 620 229 640 220 654 199 c 0
 695 135 751 97 833 97 c 0
 958 97 1040 163 1040 300 c 0
 1040 520 601 521 601 779 c 0
 601 952 842 1014 842 1149 c 0
 842 1275 719 1333 602 1333 c 0
 388 1333 331 1138 328 962 c 1
 328 77 l 2
 328 26 287 0 246 0 c 0
 207 0 168 25 168 77 c 2
 168 992 l 2
 168 1273 308 1456 619 1456 c 0
 820 1456 1009 1348 1009 1145 c 0
 1009 985 770 889 770 792 c 0
 770 607 1204 617 1204 307 c 0
 1204 94 1037 -28 839 -28 c 0
 702 -28 596 22 541 125 c 0
EndSplineSet
EndChar

StartChar: grave
Encoding: 96 96 135
Width: 569
VWidth: 0
Flags: W
LayerCount: 2
Fore
SplineSet
82 1367 m 2
 67 1379 59 1395 59 1411 c 0
 59 1453 105 1499 150 1499 c 0
 169 1499 184 1492 201 1474 c 2
 470 1173 l 2
 479 1162 482 1152 482 1141 c 0
 482 1120 468 1103 445 1103 c 0
 432 1103 418 1109 404 1120 c 2
 82 1367 l 2
EndSplineSet
EndChar

StartChar: greater
Encoding: 62 62 136
Width: 1340
VWidth: 0
Flags: W
LayerCount: 2
Fore
SplineSet
1142 571 m 2
 1183 553 1201 521 1201 495 c 0
 1201 464 1182 434 1139 416 c 2
 252 38 l 1
 242 35 233 33 226 33 c 0
 186 33 159 66 159 101 c 0
 159 124 171 145 199 157 c 2
 1001 495 l 1
 197 852 l 2
 170 864 158 885 158 908 c 0
 158 941 184 974 221 974 c 0
 230 974 240 972 250 968 c 2
 1142 571 l 2
EndSplineSet
EndChar

StartChar: greaterequal
Encoding: 8805 8805 137
Width: 1174
VWidth: 0
Flags: W
LayerCount: 2
Fore
SplineSet
187 235 m 2
 177 231 168 229 159 229 c 0
 122 229 94 262 94 297 c 0
 94 320 106 342 134 354 c 2
 936 692 l 1
 132 1049 l 2
 105 1061 93 1081 93 1104 c 0
 93 1137 119 1170 156 1170 c 0
 165 1170 175 1168 185 1164 c 2
 1076 767 l 1
 1117 750 1136 722 1136 691 c 0
 1136 660 1117 632 1074 613 c 2
 187 235 l 2
163 12 m 2
 127 12 108 40 108 67 c 0
 108 95 127 122 163 122 c 2
 1011 122 l 2
 1048 122 1066 94 1066 67 c 0
 1066 39 1048 12 1011 12 c 2
 163 12 l 2
EndSplineSet
EndChar

StartChar: guillemotleft
Encoding: 171 171 138
Width: 1158
VWidth: 0
Flags: W
LayerCount: 2
Fore
SplineSet
404 925 m 2
 422 958 448 972 472 972 c 0
 503 972 528 949 528 918 c 0
 528 911 527 902 523 894 c 2
 358 544 l 1
 523 193 l 2
 526 186 528 177 528 168 c 0
 528 137 503 115 472 115 c 0
 448 115 423 127 404 162 c 2
 192 544 l 1
 404 925 l 2
790 925 m 2
 809 959 835 972 858 972 c 0
 889 972 915 949 915 918 c 0
 915 909 913 901 910 894 c 2
 745 544 l 1
 910 193 l 2
 913 186 915 178 915 169 c 0
 915 138 889 115 858 115 c 0
 835 115 809 127 790 162 c 2
 578 544 l 1
 790 925 l 2
EndSplineSet
EndChar

StartChar: guillemotright
Encoding: 187 187 139
Width: 1158
VWidth: 0
Flags: W
LayerCount: 2
Fore
SplineSet
962 544 m 1
 750 162 l 2
 731 127 705 115 682 115 c 0
 651 115 625 137 625 168 c 0
 625 175 627 184 631 193 c 2
 796 544 l 1
 631 894 l 2
 627 902 625 910 625 918 c 0
 625 949 651 972 682 972 c 0
 705 972 731 958 750 925 c 2
 962 544 l 1
575 544 m 1
 363 162 l 2
 344 127 318 115 295 115 c 0
 264 115 238 137 238 168 c 0
 238 175 240 184 244 193 c 2
 409 544 l 1
 244 894 l 2
 240 902 238 910 238 918 c 0
 238 949 264 972 295 972 c 0
 317 972 344 958 363 925 c 2
 575 544 l 1
EndSplineSet
EndChar

StartChar: guilsinglleft
Encoding: 8249 8249 140
Width: 584
VWidth: 0
Flags: W
LayerCount: 2
Fore
SplineSet
321 925 m 2
 339 958 365 972 389 972 c 0
 420 972 445 949 445 918 c 0
 445 911 444 902 440 894 c 2
 276 544 l 1
 440 193 l 2
 443 186 445 177 445 168 c 0
 445 137 420 115 389 115 c 0
 365 115 340 127 321 162 c 2
 109 544 l 1
 321 925 l 2
EndSplineSet
EndChar

StartChar: guilsinglright
Encoding: 8250 8250 141
Width: 584
VWidth: 0
Flags: W
LayerCount: 2
Fore
SplineSet
477 544 m 1
 265 162 l 2
 246 127 219 115 196 115 c 0
 165 115 139 138 139 169 c 0
 139 176 141 184 145 193 c 2
 310 544 l 1
 145 894 l 2
 141 902 139 910 139 918 c 0
 139 949 165 972 196 972 c 0
 218 972 246 958 265 925 c 2
 477 544 l 1
EndSplineSet
EndChar

StartChar: h
Encoding: 104 104 142
Width: 1158
VWidth: 0
Flags: W
LayerCount: 2
Fore
SplineSet
843 645 m 2
 843 814 733 889 614 889 c 0
 450 889 315 790 315 575 c 2
 315 76 l 2
 315 25 274 0 234 0 c 0
 194 0 155 25 155 76 c 2
 155 1352 l 2
 155 1400 196 1425 236 1425 c 0
 276 1425 315 1401 315 1352 c 2
 315 825 l 1
 368 948 509 1013 648 1013 c 0
 839 1013 1003 907 1003 633 c 2
 1003 76 l 2
 1003 25 962 0 922 0 c 0
 882 0 843 25 843 76 c 2
 843 645 l 2
EndSplineSet
EndChar

StartChar: hungarumlaut
Encoding: 733 733 143
Width: 569
VWidth: 0
Flags: W
LayerCount: 2
Fore
SplineSet
369 1120 m 2
 354 1108 341 1104 329 1104 c 0
 306 1104 291 1121 291 1141 c 0
 291 1152 293 1162 303 1173 c 2
 572 1474 l 2
 587 1491 604 1499 623 1499 c 0
 668 1499 714 1455 714 1412 c 0
 714 1396 707 1379 691 1367 c 2
 369 1120 l 2
57 1120 m 2
 42 1108 28 1104 16 1104 c 0
 -7 1104 -22 1120 -22 1141 c 0
 -22 1152 -19 1162 -9 1173 c 2
 260 1474 l 2
 275 1491 292 1499 311 1499 c 0
 356 1499 401 1455 401 1411 c 0
 401 1395 395 1379 379 1367 c 2
 57 1120 l 2
EndSplineSet
EndChar

StartChar: hyphen
Encoding: 45 45 144
Width: 596
VWidth: 0
Flags: W
LayerCount: 2
Fore
SplineSet
104 457 m 2
 63 457 30 487 30 526 c 0
 30 567 61 598 104 598 c 2
 493 598 l 2
 534 598 566 567 566 526 c 0
 566 487 534 457 493 457 c 2
 104 457 l 2
EndSplineSet
EndChar

StartChar: i
Encoding: 105 105 145
Width: 474
VWidth: 0
Flags: W
LayerCount: 2
Fore
SplineSet
345 1336 m 0
 345 1287 305 1244 236 1244 c 0
 168 1244 128 1287 128 1336 c 0
 128 1385 168 1428 237 1428 c 0
 305 1428 345 1385 345 1336 c 0
157 911 m 2
 157 964 198 991 238 991 c 0
 277 991 317 964 317 911 c 2
 317 81 l 2
 317 28 275 0 235 0 c 0
 195 0 157 25 157 81 c 2
 157 911 l 2
EndSplineSet
EndChar

StartChar: increment
Encoding: 916 916 150
AltUni2: 002206.ffffffff.0
Width: 1197
VWidth: 0
Flags: W
LayerCount: 2
Fore
SplineSet
1124 240 m 1
 74 240 l 1
 534 1475 l 2
 546 1508 573 1525 600 1525 c 0
 627 1525 653 1508 665 1475 c 2
 1124 240 l 1
600 1342 m 1
 593 1342 l 1
 230 332 l 1
 965 332 l 1
 600 1342 l 1
EndSplineSet
EndChar

StartChar: infinity
Encoding: 8734 8734 151
Width: 1605
VWidth: 0
Flags: W
LayerCount: 2
Fore
SplineSet
1501 595 m 2
 1501 392 1347 265 1184 265 c 0
 1055 265 948 346 805 510 c 1
 696 385 583 265 415 265 c 0
 248 265 103 404 103 586 c 0
 103 775 243 913 430 913 c 0
 585 913 703 798 812 667 c 1
 916 785 1021 913 1195 913 c 0
 1375 913 1501 785 1501 597 c 2
 1501 595 l 2
430 363 m 2
 562 363 664 493 749 583 c 1
 658 695 564 818 415 818 c 0
 286 818 211 712 211 588 c 0
 211 465 294 363 428 363 c 2
 430 363 l 2
1186 818 m 2
 1047 818 937 667 865 592 c 1
 1001 440 1081 363 1192 363 c 0
 1323 363 1396 478 1396 588 c 0
 1396 731 1306 818 1189 818 c 2
 1186 818 l 2
EndSplineSet
EndChar

StartChar: integral
Encoding: 8747 8747 152
Width: 740
VWidth: 0
Flags: W
LayerCount: 2
Fore
SplineSet
595 1751 m 0
 662 1751 691 1722 691 1693 c 0
 691 1662 660 1634 607 1634 c 0
 482 1634 431 1515 431 1219 c 0
 431 899 459 522 459 189 c 0
 459 -240 314 -332 162 -332 c 0
 91 -332 58 -299 58 -267 c 0
 58 -236 87 -207 143 -207 c 0
 225 -207 316 -160 316 191 c 0
 316 527 286 912 286 1234 c 0
 286 1606 403 1751 595 1751 c 0
EndSplineSet
EndChar

StartChar: j
Encoding: 106 106 153
Width: 476
VWidth: 0
Flags: W
LayerCount: 2
Fore
SplineSet
320 -33 m 2
 320 -282 300 -373 52 -373 c 0
 33 -373 -4 -366 -4 -358 c 1
 -33 -355 -47 -331 -47 -307 c 0
 -47 -280 -29 -251 7 -251 c 0
 147 -251 159 -236 159 -72 c 2
 159 911 l 2
 159 964 200 991 241 991 c 0
 280 991 320 964 320 911 c 2
 320 -33 l 2
348 1336 m 0
 348 1287 307 1244 239 1244 c 0
 171 1244 131 1287 131 1336 c 0
 131 1385 171 1428 239 1428 c 0
 307 1428 348 1385 348 1336 c 0
EndSplineSet
EndChar

StartChar: k
Encoding: 107 107 154
Width: 992
VWidth: 0
Flags: W
LayerCount: 2
Fore
SplineSet
326 534 m 1
 326 81 l 2
 326 28 285 0 244 0 c 0
 205 0 166 25 166 81 c 2
 166 1345 l 2
 166 1398 207 1425 247 1425 c 0
 286 1425 326 1398 326 1345 c 2
 326 589 l 1
 778 968 l 1
 793 983 810 991 829 991 c 0
 866 991 899 962 899 927 c 0
 899 912 893 896 878 883 c 2
 493 562 l 1
 929 112 l 2
 941 99 945 84 945 71 c 0
 945 33 906 0 868 0 c 0
 851 0 833 9 816 26 c 2
 326 534 l 1
EndSplineSet
EndChar

StartChar: l
Encoding: 108 108 155
Width: 474
VWidth: 0
Flags: W
LayerCount: 2
Fore
SplineSet
157 1345 m 2
 157 1398 198 1425 238 1425 c 0
 277 1425 317 1398 317 1345 c 2
 317 81 l 2
 317 28 275 0 235 0 c 0
 195 0 157 25 157 81 c 2
 157 1345 l 2
EndSplineSet
EndChar

StartChar: less
Encoding: 60 60 156
Width: 1340
VWidth: 0
Flags: W
LayerCount: 2
Fore
SplineSet
197 419 m 2
 156 437 138 467 138 495 c 0
 138 523 157 555 200 574 c 2
 1087 952 l 2
 1095 955 1103 956 1112 956 c 0
 1152 956 1180 922 1180 889 c 0
 1180 866 1168 845 1139 833 c 2
 338 495 l 1
 1142 138 l 2
 1170 125 1181 104 1181 82 c 0
 1181 49 1154 16 1117 16 c 0
 1108 16 1099 18 1089 22 c 2
 197 419 l 2
EndSplineSet
EndChar

StartChar: lessequal
Encoding: 8804 8804 157
Width: 1174
VWidth: 0
Flags: W
LayerCount: 2
Fore
SplineSet
110 622 m 1
 69 639 51 667 51 698 c 0
 51 728 70 757 113 776 c 2
 1000 1154 l 2
 1009 1158 1018 1160 1027 1160 c 0
 1066 1160 1093 1126 1093 1091 c 0
 1093 1070 1081 1047 1053 1035 c 2
 251 697 l 1
 1055 340 l 2
 1083 328 1093 308 1093 285 c 0
 1093 252 1068 218 1031 218 c 0
 1021 218 1011 220 1002 225 c 2
 110 622 l 1
158 12 m 2
 122 12 103 40 103 67 c 0
 103 95 121 122 158 122 c 2
 1006 122 l 2
 1043 122 1061 95 1061 67 c 0
 1061 40 1042 12 1006 12 c 2
 158 12 l 2
EndSplineSet
EndChar

StartChar: logicalnot
Encoding: 172 172 158
Width: 1340
VWidth: 0
Flags: W
LayerCount: 2
Fore
SplineSet
1183 296 m 2
 1183 251 1148 229 1113 229 c 0
 1078 229 1044 251 1044 296 c 2
 1044 649 l 1
 221 649 l 2
 178 649 159 683 159 718 c 0
 159 753 178 787 221 787 c 2
 1112 787 l 2
 1148 787 1183 752 1183 717 c 2
 1183 296 l 2
EndSplineSet
EndChar

StartChar: lozenge
Encoding: 9674 9674 159
Width: 1197
VWidth: 0
Flags: W
LayerCount: 2
Fore
SplineSet
661 -42 m 2
 644 -73 620 -87 596 -87 c 0
 569 -87 548 -72 532 -42 c 2
 118 714 l 1
 534 1475 l 2
 551 1506 575 1522 599 1522 c 0
 626 1522 648 1506 665 1475 c 2
 1081 714 l 1
 661 -42 l 2
600 1342 m 1
 593 1342 l 1
 258 719 l 1
 596 86 l 1
 602 86 l 1
 937 712 l 1
 600 1342 l 1
EndSplineSet
EndChar

StartChar: lslash
Encoding: 322 322 160
Width: 474
VWidth: 0
Flags: W
LayerCount: 2
Fore
SplineSet
157 828 m 1
 9 743 l 2
 -1 738 -11 735 -22 735 c 0
 -60 735 -89 770 -89 806 c 0
 -89 828 -78 849 -53 863 c 2
 157 982 l 1
 157 1345 l 2
 157 1398 198 1425 238 1425 c 0
 277 1425 317 1398 317 1345 c 2
 317 1063 l 1
 495 1165 l 1
 507 1170 517 1173 526 1173 c 0
 565 1173 593 1138 593 1102 c 0
 593 1079 584 1060 557 1045 c 2
 317 910 l 1
 317 81 l 2
 317 28 275 0 235 0 c 0
 195 0 157 25 157 81 c 2
 157 828 l 1
EndSplineSet
EndChar

StartChar: m
Encoding: 109 109 161
Width: 1840
VWidth: 0
Flags: W
LayerCount: 2
Fore
SplineSet
1528 642 m 2
 1528 816 1418 889 1300 889 c 0
 1152 889 1001 809 1001 579 c 2
 1001 76 l 2
 1001 25 960 0 920 0 c 0
 880 0 841 25 841 76 c 2
 841 642 l 2
 841 816 731 889 613 889 c 0
 449 889 315 789 315 576 c 2
 315 75 l 2
 315 24 274 0 233 0 c 0
 193 0 154 24 154 75 c 2
 154 918 l 2
 154 966 195 991 235 991 c 0
 273 991 315 968 315 921 c 2
 315 826 l 1
 368 949 508 1013 647 1013 c 0
 791 1013 922 954 975 802 c 1
 1073 969 1205 1013 1335 1013 c 0
 1524 1013 1688 906 1688 633 c 2
 1688 75 l 2
 1688 24 1647 0 1607 0 c 0
 1567 0 1528 24 1528 75 c 2
 1528 642 l 2
EndSplineSet
EndChar

StartChar: middot
Encoding: 183 183 162
Width: 584
VWidth: 0
Flags: W
LayerCount: 2
Fore
SplineSet
183 520 m 0
 183 570 222 618 292 618 c 0
 361 618 400 570 400 520 c 0
 400 469 361 421 292 421 c 0
 222 421 183 469 183 520 c 0
EndSplineSet
EndChar

StartChar: minus
Encoding: 8722 8722 163
Width: 696
VWidth: 0
Flags: W
LayerCount: 2
Fore
SplineSet
104 457 m 2
 57 457 33 493 33 528 c 0
 33 563 56 598 104 598 c 2
 588 598 l 2
 635 598 658 562 658 527 c 0
 658 492 635 457 588 457 c 2
 104 457 l 2
EndSplineSet
EndChar

StartChar: mu
Encoding: 181 181 164
Width: 1158
VWidth: 0
Flags: W
LayerCount: 2
Fore
SplineSet
155 915 m 2
 155 966 195 990 235 990 c 0
 275 990 315 966 315 915 c 2
 315 345 l 2
 315 171 425 91 544 91 c 0
 700 91 830 188 843 384 c 1
 843 916 l 2
 843 965 884 991 924 991 c 0
 964 991 1003 967 1003 916 c 2
 1003 75 l 2
 1003 26 962 0 922 0 c 0
 882 0 843 25 843 74 c 2
 843 164 l 1
 787 48 651 -17 519 -17 c 0
 443 -17 372 0 315 43 c 1
 315 -173 l 2
 315 -226 273 -253 233 -253 c 0
 193 -253 155 -229 155 -173 c 2
 155 915 l 2
EndSplineSet
EndChar

StartChar: multiply
Encoding: 215 215 165
Width: 1340
VWidth: 0
Flags: W
LayerCount: 2
Fore
SplineSet
672 593 m 1
 936 857 l 2
 950 871 966 878 983 878 c 0
 1019 878 1052 846 1052 810 c 0
 1052 795 1046 778 1031 763 c 2
 767 498 l 1
 1021 245 l 2
 1034 232 1039 216 1039 201 c 0
 1039 162 1006 127 967 127 c 0
 951 127 936 134 923 147 c 2
 669 400 l 1
 405 136 l 2
 392 123 376 116 359 116 c 0
 323 116 289 148 289 184 c 0
 289 199 295 216 310 231 c 2
 574 495 l 1
 319 750 l 2
 306 763 299 778 299 795 c 0
 299 832 334 868 372 868 c 0
 389 868 404 861 417 848 c 2
 672 593 l 1
EndSplineSet
EndChar

StartChar: n
Encoding: 110 110 166
Width: 1158
VWidth: 0
Flags: W
LayerCount: 2
Fore
SplineSet
155 917 m 2
 155 965 196 990 236 990 c 0
 295 990 318 955 318 880 c 0
 318 864 317 846 315 826 c 1
 365 939 512 1013 648 1013 c 0
 839 1013 1003 900 1003 626 c 2
 1003 76 l 2
 1003 25 962 0 922 0 c 0
 882 0 843 25 843 76 c 2
 843 639 l 2
 843 809 733 889 614 889 c 1
 450 884 315 796 315 576 c 2
 315 76 l 2
 315 25 274 0 234 0 c 0
 194 0 155 25 155 76 c 2
 155 917 l 2
EndSplineSet
EndChar

StartChar: nine
Encoding: 57 57 167
Width: 1169
VWidth: 0
Flags: W
LayerCount: 2
Fore
SplineSet
198 50 m 1
 175 61 166 81 166 104 c 0
 166 144 195 185 232 185 c 0
 237 185 243 184 249 182 c 0
 345 145 438 126 511 126 c 0
 839 126 899 448 899 728 c 1
 897 728 l 2
 895 728 l 1
 830 585 690 517 529 517 c 0
 251 517 89 703 89 968 c 0
 89 1235 265 1438 556 1438 c 0
 957 1438 1081 1127 1081 787 c 0
 1081 456 1011 -22 504 -22 c 0
 393 -22 287 3 198 50 c 1
572 1298 m 0
 376 1298 268 1164 268 977 c 0
 268 801 350 643 549 643 c 0
 760 643 874 790 874 985 c 0
 874 1153 748 1298 572 1298 c 0
EndSplineSet
EndChar

StartChar: notequal
Encoding: 8800 8800 168
Width: 1166
VWidth: 0
Flags: W
LayerCount: 2
Fore
SplineSet
150 687 m 2
 106 687 83 720 83 755 c 0
 83 788 105 821 150 821 c 2
 619 821 l 1
 731 1063 l 2
 745 1094 771 1107 798 1107 c 0
 834 1107 869 1082 869 1043 c 0
 869 1031 866 1020 861 1009 c 2
 772 821 l 1
 1036 821 l 2
 1080 821 1103 788 1103 753 c 0
 1103 720 1081 687 1036 687 c 2
 711 687 l 1
 590 427 l 1
 1036 427 l 2
 1081 427 1104 394 1104 361 c 0
 1104 326 1081 293 1036 293 c 2
 529 293 l 1
 409 38 l 2
 394 6 371 -6 344 -6 c 0
 309 -6 275 19 275 58 c 0
 275 69 276 80 283 92 c 1
 377 293 l 1
 150 293 l 2
 106 293 83 326 83 361 c 0
 83 394 105 427 150 427 c 2
 437 427 l 1
 558 687 l 1
 150 687 l 2
EndSplineSet
EndChar

StartChar: numbersign
Encoding: 35 35 170
Width: 1169
VWidth: 0
Flags: W
LayerCount: 2
Fore
SplineSet
687 459 m 1
 422 459 l 1
 355 10 l 2
 349 -31 316 -51 286 -51 c 0
 253 -51 220 -28 220 15 c 2
 220 21 l 2
 220 24 220 26 221 29 c 2
 284 459 l 1
 137 459 l 2
 94 459 72 492 72 524 c 0
 72 557 93 589 137 589 c 2
 302 589 l 1
 342 863 l 1
 193 863 l 2
 150 863 128 896 128 929 c 0
 128 962 149 994 193 994 c 2
 361 994 l 1
 420 1399 l 1
 427 1440 460 1460 492 1460 c 0
 527 1460 559 1438 559 1395 c 2
 559 1388 l 2
 559 1386 559 1384 558 1381 c 2
 500 994 l 1
 765 994 l 1
 824 1399 l 1
 831 1440 864 1460 896 1460 c 0
 931 1460 963 1438 963 1395 c 2
 963 1388 l 2
 963 1386 963 1384 962 1381 c 2
 904 994 l 1
 1031 994 l 2
 1074 994 1096 961 1096 928 c 0
 1096 895 1075 863 1031 863 c 2
 885 863 l 1
 845 589 l 1
 974 589 l 2
 1017 589 1040 556 1040 523 c 0
 1040 491 1018 459 974 459 c 2
 825 459 l 1
 759 10 l 2
 752 -31 721 -51 690 -51 c 0
 657 -51 624 -28 624 15 c 2
 624 21 l 2
 624 24 624 26 625 29 c 2
 687 459 l 1
441 589 m 1
 706 589 l 1
 746 863 l 1
 481 863 l 1
 441 589 l 1
EndSplineSet
EndChar

StartChar: o
Encoding: 111 111 171
Width: 1162
VWidth: 0
Flags: W
LayerCount: 2
Fore
SplineSet
86 496 m 0
 86 746 241 1013 580 1013 c 0
 911 1013 1075 759 1075 496 c 0
 1075 245 921 -22 580 -22 c 0
 239 -22 86 245 86 496 c 0
257 496 m 0
 257 324 346 102 580 102 c 0
 815 102 903 325 903 496 c 0
 903 666 814 889 580 889 c 0
 348 889 257 667 257 496 c 0
EndSplineSet
EndChar

StartChar: oe
Encoding: 339 339 175
Width: 1834
VWidth: 0
Flags: W
LayerCount: 2
Fore
SplineSet
1727 526 m 0
 1727 495 1709 463 1664 463 c 2
 1019 463 l 1
 1022 262 1105 100 1325 100 c 0
 1422 100 1518 151 1580 199 c 0
 1595 210 1609 214 1621 214 c 0
 1650 214 1670 191 1670 163 c 0
 1670 147 1663 131 1650 115 c 0
 1587 36 1450 -30 1283 -30 c 0
 1116 -30 998 64 932 202 c 1
 860 67 737 -28 559 -28 c 0
 237 -28 85 231 85 495 c 0
 85 762 237 1020 559 1020 c 0
 739 1020 863 927 935 795 c 1
 1004 928 1124 1021 1291 1021 c 0
 1590 1021 1719 805 1727 526 c 0
254 495 m 0
 254 311 342 96 559 96 c 0
 768 96 856 310 856 493 c 0
 856 679 774 895 559 895 c 0
 342 895 254 681 254 495 c 0
1568 579 m 1
 1555 763 1467 898 1290 898 c 0
 1123 898 1032 748 1021 579 c 1
 1568 579 l 1
EndSplineSet
EndChar

StartChar: one
Encoding: 49 49 178
Width: 1169
VWidth: 0
Flags: W
LayerCount: 2
Fore
SplineSet
329 1092 m 2
 318 1085 306 1081 294 1081 c 0
 257 1081 227 1113 227 1148 c 0
 227 1167 236 1184 257 1199 c 1
 593 1412 l 2
 607 1421 627 1426 643 1426 c 0
 686 1426 727 1399 727 1340 c 2
 727 83 l 2
 727 27 683 0 638 0 c 0
 595 0 551 27 551 83 c 2
 551 1236 l 1
 329 1092 l 2
EndSplineSet
EndChar

StartChar: onehalf
Encoding: 189 189 179
Width: 1560
VWidth: 0
Flags: W
LayerCount: 2
Fore
SplineSet
560 -48 m 2
 551 -75 530 -88 507 -88 c 0
 479 -88 451 -68 451 -35 c 0
 451 -28 452 -20 455 -13 c 2
 930 1392 l 2
 939 1420 962 1433 985 1433 c 0
 1014 1433 1042 1413 1042 1380 c 0
 1042 1373 1041 1366 1038 1358 c 2
 560 -48 l 2
1181 751 m 0
 1121 751 1061 725 1022 702 c 0
 1011 695 1000 692 989 692 c 0
 966 692 951 708 951 727 c 0
 951 778 1092 837 1188 837 c 0
 1321 837 1439 769 1439 637 c 0
 1439 452 1172 218 1023 85 c 1
 1406 85 l 2
 1433 85 1448 63 1448 42 c 0
 1448 21 1434 0 1406 0 c 2
 974 0 l 2
 923 0 902 23 902 52 c 0
 902 77 917 103 942 127 c 0
 1058 239 1332 486 1332 629 c 0
 1332 709 1257 751 1181 751 c 0
213 1185 m 2
 206 1180 199 1178 192 1178 c 0
 169 1178 153 1198 153 1217 c 0
 153 1230 159 1240 170 1247 c 2
 369 1373 l 2
 378 1378 387 1381 397 1381 c 0
 420 1381 443 1366 443 1331 c 2
 443 614 l 2
 443 583 418 567 393 567 c 0
 369 567 345 583 345 614 c 2
 345 1270 l 1
 213 1185 l 2
EndSplineSet
EndChar

StartChar: onequarter
Encoding: 188 188 180
Width: 1543
VWidth: 0
Flags: W
LayerCount: 2
Fore
SplineSet
562 -48 m 2
 553 -75 532 -88 509 -88 c 0
 481 -88 453 -68 453 -35 c 0
 453 -28 454 -20 457 -13 c 2
 932 1392 l 2
 941 1420 964 1433 987 1433 c 0
 1016 1433 1044 1413 1044 1380 c 0
 1044 1373 1043 1366 1040 1358 c 2
 562 -48 l 2
1180 791 m 1
 1201 826 1231 840 1262 840 c 0
 1301 840 1332 817 1332 766 c 2
 1332 262 l 1
 1425 262 l 2
 1450 262 1464 245 1464 226 c 0
 1464 207 1452 190 1425 190 c 2
 1332 190 l 1
 1332 49 l 2
 1332 17 1308 1 1284 1 c 0
 1260 1 1236 17 1236 49 c 2
 1236 190 l 1
 889 190 l 2
 854 190 832 215 832 244 c 0
 832 257 836 269 844 281 c 2
 1180 791 l 1
922 262 m 1
 1236 262 l 1
 1236 745 l 1
 922 262 l 1
213 1185 m 2
 206 1180 199 1178 192 1178 c 0
 169 1178 153 1198 153 1217 c 0
 153 1230 159 1240 170 1247 c 2
 369 1373 l 2
 378 1378 387 1381 397 1381 c 0
 420 1381 443 1366 443 1331 c 2
 443 614 l 2
 443 583 418 567 393 567 c 0
 369 567 345 583 345 614 c 2
 345 1270 l 1
 213 1185 l 2
EndSplineSet
EndChar

StartChar: onesuperior
Encoding: 185 185 181
Width: 688
VWidth: 0
Flags: W
LayerCount: 2
Fore
SplineSet
246 1185 m 2
 239 1180 232 1178 225 1178 c 0
 202 1178 186 1198 186 1217 c 0
 186 1230 192 1240 203 1247 c 2
 402 1373 l 2
 411 1378 420 1381 430 1381 c 0
 453 1381 475 1366 475 1331 c 2
 475 614 l 2
 475 583 450 567 426 567 c 0
 402 567 378 583 378 614 c 2
 378 1270 l 1
 246 1185 l 2
EndSplineSet
EndChar

StartChar: ordfeminine
Encoding: 170 170 182
Width: 1043
VWidth: 0
Flags: W
LayerCount: 2
Fore
SplineSet
656 1257 m 2
 656 1373 585 1412 479 1412 c 0
 372 1412 318 1383 256 1345 c 1
 247 1338 237 1337 229 1337 c 0
 202 1337 184 1358 184 1382 c 0
 184 1393 190 1403 200 1413 c 0
 264 1476 361 1510 482 1510 c 0
 661 1510 773 1432 773 1249 c 2
 772 776 l 2
 772 741 743 723 714 723 c 0
 686 723 657 740 657 775 c 2
 657 847 l 1
 614 754 509 701 403 701 c 0
 255 701 140 788 140 936 c 0
 140 1125 313 1195 568 1195 c 0
 595 1195 627 1194 656 1191 c 1
 656 1257 l 2
656 1102 m 1
 578 1102 l 2
 438 1102 263 1085 263 939 c 0
 263 840 337 796 429 793 c 1
 552 796 648 873 656 1030 c 1
 656 1102 l 1
EndSplineSet
EndChar

StartChar: ordmasculine
Encoding: 186 186 183
Width: 1118
VWidth: 0
Flags: W
LayerCount: 2
Fore
SplineSet
158 1108 m 0
 158 1310 278 1510 541 1510 c 0
 805 1510 926 1310 926 1108 c 0
 926 905 805 707 541 707 c 0
 278 707 158 905 158 1108 c 0
290 1108 m 0
 290 969 362 802 541 802 c 0
 721 802 793 969 793 1109 c 0
 793 1248 721 1414 541 1414 c 0
 362 1414 290 1248 290 1108 c 0
EndSplineSet
EndChar

StartChar: oslash
Encoding: 248 248 184
Width: 1162
VWidth: 0
Flags: W
LayerCount: 2
Fore
SplineSet
86 495 m 0
 86 762 244 1020 580 1020 c 0
 627 1020 669 1015 709 1006 c 1
 760 1136 l 2
 772 1167 797 1180 824 1180 c 0
 856 1180 888 1158 888 1121 c 0
 888 1112 886 1103 882 1093 c 2
 831 959 l 1
 996 868 1075 684 1075 495 c 0
 1075 231 917 -28 580 -28 c 0
 537 -28 499 -23 463 -16 c 1
 415 -139 l 2
 403 -170 380 -182 355 -182 c 0
 322 -182 291 -159 291 -122 c 0
 291 -113 293 -104 296 -95 c 2
 343 26 l 1
 168 114 86 303 86 495 c 0
907 495 m 0
 907 610 866 745 769 820 c 1
 513 101 l 1
 534 96 557 93 580 93 c 0
 815 93 907 308 907 495 c 0
253 495 m 0
 253 376 297 236 405 163 c 1
 659 887 l 1
 635 895 609 898 580 898 c 0
 348 898 253 684 253 495 c 0
EndSplineSet
EndChar

StartChar: overscore
Encoding: 175 175 186
Width: 569
VWidth: 0
Flags: W
LayerCount: 2
Fore
SplineSet
83 1312 m 2
 38 1312 16 1344 16 1379 c 0
 16 1412 38 1446 83 1446 c 2
 492 1446 l 2
 535 1446 556 1412 556 1379 c 0
 556 1344 535 1312 492 1312 c 2
 83 1312 l 2
EndSplineSet
EndChar

StartChar: p
Encoding: 112 112 187
Width: 1162
VWidth: 0
Flags: W
LayerCount: 2
Fore
SplineSet
298 825 m 1
 370 954 507 1013 657 1013 c 0
 948 1013 1071 755 1071 491 c 0
 1071 223 940 -22 651 -22 c 0
 513 -22 376 40 298 164 c 1
 298 -305 l 2
 298 -354 258 -379 218 -379 c 0
 178 -379 138 -354 138 -305 c 2
 138 917 l 2
 138 966 177 990 217 990 c 0
 277 990 301 953 301 876 c 0
 301 861 300 844 298 825 c 1
299 492 m 0
 299 292 388 102 613 102 c 0
 840 102 901 315 901 497 c 0
 901 677 840 886 616 889 c 1
 366 889 299 714 299 492 c 0
EndSplineSet
EndChar

StartChar: paragraph
Encoding: 182 182 188
Width: 1325
VWidth: 0
Flags: W
LayerCount: 2
Fore
SplineSet
942 1426 m 2
 1042 1426 1051 1369 1051 1314 c 2
 1051 -199 l 2
 1051 -246 1014 -270 977 -270 c 0
 940 -270 903 -246 903 -199 c 2
 903 1299 l 1
 673 1299 l 1
 673 -199 l 2
 673 -246 636 -270 599 -270 c 0
 562 -270 525 -246 525 -199 c 2
 525 674 l 1
 308 674 128 842 128 1045 c 0
 128 1285 295 1426 581 1426 c 2
 942 1426 l 2
EndSplineSet
EndChar

StartChar: parenleft
Encoding: 40 40 189
Width: 592
VWidth: 0
Flags: W
LayerCount: 2
Fore
SplineSet
362 -174 m 0
 252 85 155 356 155 633 c 0
 155 911 253 1185 362 1447 c 0
 375 1479 400 1493 424 1493 c 0
 456 1493 487 1468 487 1432 c 0
 487 1424 486 1415 482 1406 c 0
 386 1146 328 883 328 634 c 0
 328 386 385 126 481 -134 c 0
 484 -141 486 -150 486 -161 c 0
 486 -196 456 -220 424 -220 c 0
 400 -220 377 -207 362 -174 c 0
EndSplineSet
EndChar

StartChar: parenright
Encoding: 41 41 190
Width: 592
VWidth: 0
Flags: W
LayerCount: 2
Fore
SplineSet
232 -174 m 0
 217 -207 193 -220 169 -220 c 0
 137 -220 107 -196 107 -161 c 0
 107 -153 109 -144 113 -134 c 0
 209 126 266 386 266 634 c 0
 266 883 208 1145 112 1406 c 0
 108 1415 106 1423 106 1432 c 0
 106 1467 138 1492 170 1492 c 0
 194 1492 217 1479 232 1447 c 1
 341 1185 439 911 439 633 c 0
 439 356 342 85 232 -174 c 0
EndSplineSet
EndChar

StartChar: partialdiff
Encoding: 8706 8706 191
Width: 1145
VWidth: 0
Flags: W
LayerCount: 2
Fore
SplineSet
214 1403 m 0
 207 1400 199 1398 190 1398 c 0
 154 1398 126 1433 126 1468 c 0
 126 1491 137 1511 165 1524 c 0
 271 1572 385 1604 502 1604 c 0
 811 1604 1040 1361 1040 822 c 0
 1040 345 856 -24 511 -24 c 0
 222 -24 87 219 87 451 c 0
 87 772 294 976 531 976 c 0
 727 976 876 780 881 775 c 1
 882 786 883 800 883 817 c 2
 883 862 l 2
 883 1294 718 1468 492 1468 c 0
 400 1468 306 1439 214 1403 c 0
526 108 m 2
 713 108 834 352 861 620 c 1
 831 712 722 847 559 847 c 0
 388 847 246 671 246 453 c 0
 246 253 358 108 524 108 c 2
 526 108 l 2
EndSplineSet
EndChar

StartChar: percent
Encoding: 37 37 192
Width: 2060
VWidth: 0
Flags: W
LayerCount: 2
Fore
SplineSet
557 1299 m 0
 410 1299 358 1156 358 1020 c 0
 358 883 410 740 557 740 c 0
 705 740 757 883 757 1020 c 0
 757 1156 705 1299 557 1299 c 0
1339 1399 m 2
 1354 1426 1376 1437 1395 1437 c 0
 1424 1437 1449 1412 1449 1380 c 0
 1449 1369 1446 1358 1440 1347 c 2
 649 -42 l 2
 637 -63 620 -71 601 -71 c 0
 570 -71 541 -48 541 -17 c 0
 541 -9 544 0 549 9 c 2
 1339 1399 l 2
557 1403 m 0
 784 1403 893 1213 893 1020 c 0
 893 812 768 637 557 637 c 0
 345 637 223 808 223 1020 c 0
 223 1228 346 1403 557 1403 c 0
1502 735 m 0
 1729 735 1837 546 1837 353 c 0
 1837 146 1714 -31 1502 -31 c 0
 1289 -31 1167 143 1167 353 c 0
 1167 560 1292 735 1502 735 c 0
1502 632 m 0
 1353 632 1303 489 1303 353 c 0
 1303 216 1353 73 1502 73 c 0
 1650 73 1701 216 1701 353 c 0
 1701 489 1650 632 1502 632 c 0
EndSplineSet
EndChar

StartChar: period
Encoding: 46 46 193
Width: 584
VWidth: 0
Flags: W
LayerCount: 2
Fore
SplineSet
184 97 m 0
 184 145 223 194 292 194 c 0
 360 194 399 145 399 97 c 0
 399 47 360 -1 292 -1 c 0
 223 -1 184 47 184 97 c 0
EndSplineSet
EndChar

StartChar: perthousand
Encoding: 8240 8240 194
Width: 2303
VWidth: 0
Flags: W
LayerCount: 2
Fore
SplineSet
372 1302 m 0
 224 1302 173 1156 173 1023 c 0
 173 888 224 743 372 743 c 0
 521 743 571 888 571 1023 c 0
 571 1156 521 1302 372 1302 c 0
1095 1399 m 2
 1110 1426 1131 1437 1151 1437 c 0
 1180 1437 1205 1412 1205 1380 c 0
 1205 1369 1202 1358 1196 1347 c 2
 404 -42 l 2
 392 -63 376 -71 357 -71 c 0
 326 -71 297 -48 297 -17 c 0
 297 -9 300 0 305 9 c 2
 1095 1399 l 2
374 1403 m 0
 579 1403 700 1228 700 1025 c 0
 700 820 583 642 371 642 c 0
 164 642 45 817 45 1021 c 0
 45 1225 161 1403 374 1403 c 0
1900 730 m 0
 2105 730 2225 556 2225 351 c 0
 2225 147 2109 -31 1897 -31 c 0
 1690 -31 1570 144 1570 348 c 0
 1570 552 1687 730 1900 730 c 0
1898 629 m 0
 1749 629 1699 483 1699 350 c 0
 1699 215 1749 71 1898 71 c 0
 2047 71 2097 215 2097 350 c 0
 2097 483 2047 629 1898 629 c 0
1154 730 m 0
 1359 730 1480 556 1480 351 c 0
 1480 147 1363 -31 1151 -31 c 0
 945 -31 824 144 824 348 c 0
 824 552 941 730 1154 730 c 0
1152 629 m 0
 1003 629 954 483 954 350 c 0
 954 215 1003 71 1152 71 c 0
 1301 71 1351 215 1351 350 c 0
 1351 483 1301 629 1152 629 c 0
EndSplineSet
EndChar

StartChar: pi
Encoding: 960 960 195
Width: 1198
VWidth: 0
Flags: W
LayerCount: 2
Fore
SplineSet
968 931 m 1
 968 384 l 2
 968 224 984 130 999 70 c 0
 1000 63 1001 58 1001 55 c 0
 1001 19 969 -4 933 -4 c 0
 897 -4 863 15 842 64 c 0
 826 100 808 188 808 357 c 2
 808 931 l 1
 439 931 l 1
 427 660 364 249 288 61 c 0
 265 5 226 -17 191 -17 c 0
 156 -17 126 6 126 45 c 0
 126 53 127 62 131 73 c 0
 209 284 271 629 284 902 c 0
 284 913 285 922 285 931 c 1
 213 931 l 2
 154 931 126 963 126 998 c 0
 126 1031 154 1065 213 1065 c 2
 1046 1065 l 2
 1093 1065 1116 1031 1116 998 c 0
 1116 963 1093 931 1046 931 c 2
 968 931 l 1
EndSplineSet
EndChar

StartChar: plus
Encoding: 43 43 196
Width: 1340
VWidth: 0
Flags: W
LayerCount: 2
Fore
SplineSet
739 563 m 1
 1113 563 l 2
 1152 563 1183 535 1183 496 c 0
 1183 460 1152 429 1113 429 c 2
 739 429 l 1
 739 71 l 2
 739 34 707 4 670 4 c 0
 630 4 600 32 600 71 c 2
 600 429 l 1
 227 429 l 2
 188 429 157 460 157 496 c 0
 157 535 188 563 227 563 c 2
 600 563 l 1
 600 924 l 2
 600 963 630 992 670 992 c 0
 707 992 739 963 739 924 c 2
 739 563 l 1
EndSplineSet
EndChar

StartChar: plusminus
Encoding: 177 177 197
Width: 1340
VWidth: 0
Flags: W
LayerCount: 2
Fore
SplineSet
739 277 m 2
 739 234 703 212 668 212 c 0
 633 212 600 233 600 277 c 2
 600 532 l 1
 227 532 l 2
 183 532 160 565 160 600 c 0
 160 633 182 666 227 666 c 2
 600 666 l 1
 600 924 l 2
 600 967 635 990 670 990 c 0
 705 990 739 968 739 924 c 2
 739 666 l 1
 1113 666 l 2
 1158 666 1181 634 1181 599 c 0
 1181 566 1158 532 1113 532 c 2
 739 532 l 1
 739 277 l 2
1113 134 m 2
 1160 134 1182 102 1182 67 c 0
 1182 34 1158 0 1113 0 c 2
 227 0 l 2
 182 0 159 34 159 67 c 0
 159 102 182 134 227 134 c 2
 1113 134 l 2
EndSplineSet
EndChar

StartChar: product
Encoding: 8719 8719 198
Width: 1461
VWidth: 0
Flags: W
LayerCount: 2
Fore
SplineSet
1179 1289 m 1
 1178 -119 l 2
 1178 -171 1138 -196 1099 -196 c 0
 1059 -196 1020 -171 1020 -119 c 2
 1020 1289 l 1
 439 1289 l 1
 439 -119 l 2
 439 -171 399 -196 360 -196 c 0
 320 -196 281 -171 281 -119 c 2
 281 1289 l 1
 124 1289 l 2
 76 1289 52 1324 52 1359 c 0
 52 1394 76 1430 124 1430 c 2
 1342 1430 l 2
 1385 1430 1406 1395 1406 1359 c 0
 1406 1324 1385 1289 1342 1289 c 2
 1179 1289 l 1
EndSplineSet
EndChar

StartChar: q
Encoding: 113 113 199
Width: 1162
VWidth: 0
Flags: W
LayerCount: 2
Fore
SplineSet
868 825 m 1
 868 865 869 881 869 921 c 1
 872 968 910 991 947 991 c 0
 986 991 1023 966 1023 917 c 2
 1023 -303 l 2
 1023 -352 982 -377 942 -377 c 0
 902 -377 863 -354 863 -303 c 2
 863 164 l 1
 785 40 648 -22 510 -22 c 0
 221 -22 90 223 90 491 c 0
 90 755 213 1013 504 1013 c 0
 653 1013 796 953 868 825 c 1
862 492 m 0
 862 716 795 886 545 889 c 1
 322 886 259 677 259 497 c 0
 259 310 323 102 547 102 c 0
 773 102 862 290 862 492 c 0
EndSplineSet
EndChar

StartChar: question
Encoding: 63 63 200
Width: 1032
VWidth: 0
Flags: W
LayerCount: 2
Fore
SplineSet
222 1333 m 0
 215 1332 210 1331 207 1331 c 0
 168 1331 143 1368 143 1405 c 0
 143 1436 161 1468 205 1479 c 0
 297 1503 396 1510 488 1510 c 0
 706 1510 889 1393 889 1140 c 0
 889 970 794 877 681 769 c 1
 552 634 499 615 496 524 c 1
 496 509 l 2
 496 494 497 469 497 426 c 0
 497 379 459 355 420 355 c 0
 350 355 341 400 341 481 c 0
 341 508 342 537 342 571 c 1
 350 771 711 882 711 1128 c 0
 711 1307 581 1359 448 1359 c 0
 411 1359 300 1352 222 1333 c 0
317 88 m 0
 317 137 355 184 424 184 c 0
 493 184 532 137 532 88 c 0
 532 37 493 -11 424 -11 c 0
 355 -11 317 37 317 88 c 0
EndSplineSet
EndChar

StartChar: quotedbl
Encoding: 34 34 202
Width: 633
VWidth: 0
Flags: W
LayerCount: 2
Fore
SplineSet
365 1408 m 1
 365 1414 l 2
 365 1457 406 1480 447 1480 c 0
 488 1480 528 1458 528 1414 c 1
 501 1059 l 2
 498 1016 471 994 446 994 c 0
 419 994 395 1016 392 1059 c 2
 365 1408 l 1
98 1408 m 1
 98 1414 l 2
 98 1457 139 1480 180 1480 c 0
 221 1480 261 1458 261 1414 c 1
 234 1059 l 2
 231 1016 204 994 179 994 c 0
 154 994 128 1016 125 1059 c 2
 98 1408 l 1
EndSplineSet
EndChar

StartChar: quotedblbase
Encoding: 8222 8222 203
Width: 1146
VWidth: 0
Flags: W
LayerCount: 2
Fore
SplineSet
378 -234 m 1
 240 -234 l 1
 333 192 l 1
 530 192 l 1
 378 -234 l 1
774 -234 m 1
 635 -234 l 1
 728 192 l 1
 925 192 l 1
 774 -234 l 1
EndSplineSet
EndChar

StartChar: quotedblleft
Encoding: 8220 8220 204
Width: 1146
VWidth: 0
Flags: W
LayerCount: 2
Fore
SplineSet
372 1426 m 1
 511 1426 l 1
 417 1001 l 1
 221 1001 l 1
 372 1426 l 1
769 1426 m 1
 906 1426 l 1
 813 1001 l 1
 617 1001 l 1
 769 1426 l 1
EndSplineSet
EndChar

StartChar: quotedblright
Encoding: 8221 8221 205
Width: 1146
VWidth: 0
Flags: W
LayerCount: 2
Fore
SplineSet
773 1001 m 1
 635 1001 l 1
 728 1426 l 1
 925 1426 l 1
 773 1001 l 1
377 1001 m 1
 239 1001 l 1
 332 1426 l 1
 529 1426 l 1
 377 1001 l 1
EndSplineSet
EndChar

StartChar: quoteleft
Encoding: 8216 8216 206
Width: 584
VWidth: 0
Flags: W
LayerCount: 2
Fore
SplineSet
292 1426 m 1
 430 1426 l 1
 336 1001 l 1
 140 1001 l 1
 292 1426 l 1
EndSplineSet
EndChar

StartChar: quoteright
Encoding: 8217 8217 207
Width: 584
VWidth: 0
Flags: W
LayerCount: 2
Fore
SplineSet
292 1001 m 1
 155 1001 l 1
 248 1426 l 1
 445 1426 l 1
 292 1001 l 1
EndSplineSet
EndChar

StartChar: quotesinglbase
Encoding: 8218 8218 208
Width: 584
VWidth: 0
Flags: W
LayerCount: 2
Fore
SplineSet
292 -234 m 1
 155 -234 l 1
 248 192 l 1
 445 192 l 1
 292 -234 l 1
EndSplineSet
EndChar

StartChar: quotesingle
Encoding: 39 39 209
Width: 584
VWidth: 0
Flags: W
LayerCount: 2
Fore
SplineSet
210 1408 m 1
 210 1414 l 2
 210 1457 250 1480 293 1480 c 0
 334 1480 374 1458 374 1414 c 1
 346 1059 l 2
 342 1016 317 994 291 994 c 0
 266 994 241 1016 238 1059 c 2
 210 1408 l 1
EndSplineSet
EndChar

StartChar: r
Encoding: 114 114 210
Width: 709
VWidth: 0
Flags: W
LayerCount: 2
Fore
SplineSet
155 915 m 2
 155 963 192 991 240 991 c 0
 287 991 315 963 315 915 c 2
 315 826 l 1
 355 942 434 1013 589 1013 c 0
 641 1013 669 978 669 943 c 0
 669 910 643 875 587 875 c 0
 415 875 315 757 315 565 c 2
 315 74 l 2
 315 25 274 0 233 0 c 0
 193 0 155 23 155 74 c 2
 155 915 l 2
EndSplineSet
EndChar

StartChar: registered
Encoding: 174 174 212
Width: 1657
VWidth: 0
Flags: W
LayerCount: 2
Fore
SplineSet
579 1066 m 2
 579 1100 600 1141 653 1141 c 2
 909 1141 l 2
 1113 1141 1183 1072 1183 937 c 0
 1183 789 1084 746 953 733 c 1
 1138 469 l 2
 1143 461 1146 452 1146 443 c 0
 1146 414 1116 391 1087 391 c 0
 1072 391 1057 398 1047 414 c 2
 841 732 l 1
 693 732 l 1
 693 444 l 2
 693 409 664 391 635 391 c 0
 607 391 579 408 579 444 c 2
 579 1066 l 2
693 1044 m 1
 693 827 l 1
 887 827 l 2
 975 827 1062 829 1062 941 c 0
 1062 1030 981 1044 890 1044 c 2
 693 1044 l 1
834 93 m 0
 446 93 130 396 130 762 c 0
 130 1132 446 1435 834 1435 c 0
 1219 1435 1535 1132 1535 762 c 0
 1535 396 1219 93 834 93 c 0
254 762 m 0
 254 439 498 204 834 204 c 0
 1168 204 1411 439 1411 762 c 0
 1411 1084 1168 1319 834 1319 c 0
 498 1319 254 1084 254 762 c 0
EndSplineSet
EndChar

StartChar: ring
Encoding: 730 730 213
Width: 569
VWidth: 0
Flags: W
LayerCount: 2
Fore
SplineSet
95 1288 m 0
 95 1387 184 1470 285 1470 c 0
 388 1470 474 1387 474 1288 c 0
 474 1190 388 1105 285 1105 c 0
 184 1105 95 1190 95 1288 c 0
395 1288 m 0
 395 1341 341 1394 285 1394 c 0
 228 1394 175 1344 175 1288 c 0
 175 1235 228 1182 285 1182 c 0
 339 1182 395 1235 395 1288 c 0
EndSplineSet
EndChar

StartChar: s
Encoding: 115 115 214
Width: 1024
VWidth: 0
Flags: W
LayerCount: 2
Fore
SplineSet
284 747 m 0
 284 606 493 621 749 533 c 1
 862 497 933 411 933 299 c 0
 933 76 723 -22 496 -22 c 0
 307 -22 112 60 112 133 c 0
 112 164 139 189 178 189 c 1
 222 186 342 102 523 102 c 0
 646 102 772 152 772 280 c 0
 772 356 717 397 636 424 c 0
 422 493 123 481 123 740 c 0
 123 943 315 1013 515 1013 c 0
 759 1013 872 920 872 865 c 0
 872 836 845 814 810 814 c 0
 794 814 779 817 763 828 c 0
 701 869 632 889 510 889 c 0
 391 889 284 856 284 747 c 0
EndSplineSet
EndChar

StartChar: section
Encoding: 167 167 216
Width: 1169
VWidth: 0
Flags: W
LayerCount: 2
Fore
SplineSet
858 1471 m 0
 889 1462 902 1439 902 1415 c 0
 902 1382 878 1348 843 1348 c 2
 835 1348 l 2
 832 1348 830 1349 827 1350 c 0
 775 1365 705 1382 653 1382 c 0
 555 1382 428 1352 428 1234 c 0
 428 1032 935 1063 935 794 c 0
 935 673 824 584 718 539 c 1
 839 491 937 421 937 282 c 0
 937 66 744 -32 536 -32 c 0
 440 -32 340 -18 252 13 c 0
 221 24 208 47 208 70 c 0
 208 102 232 135 269 135 c 0
 276 135 284 133 294 130 c 0
 350 109 417 97 510 97 c 0
 628 97 761 146 761 284 c 0
 761 495 221 416 221 732 c 0
 221 851 335 940 442 983 c 1
 337 1047 251 1098 251 1229 c 0
 251 1434 430 1510 627 1510 c 0
 706 1510 785 1492 858 1471 c 0
547 938 m 1
 467 887 382 851 382 751 c 0
 382 657 512 615 588 583 c 1
 668 628 775 670 775 768 c 0
 775 870 630 895 547 938 c 1
EndSplineSet
EndChar

StartChar: semicolon
Encoding: 59 59 217
Width: 584
VWidth: 0
Flags: W
LayerCount: 2
Fore
SplineSet
210 924 m 0
 210 973 248 1020 317 1020 c 0
 386 1020 425 973 425 924 c 0
 425 873 386 825 317 825 c 0
 248 825 210 873 210 924 c 0
284 -240 m 1
 146 -240 l 1
 239 185 l 1
 436 185 l 1
 284 -240 l 1
EndSplineSet
EndChar

StartChar: seven
Encoding: 55 55 218
Width: 1169
VWidth: 0
Flags: W
LayerCount: 2
Fore
SplineSet
512 49 m 2
 497 14 465 0 434 0 c 0
 387 0 338 34 338 83 c 0
 338 94 341 106 347 119 c 2
 856 1281 l 1
 176 1281 l 2
 127 1281 103 1317 103 1353 c 0
 103 1389 127 1426 176 1426 c 2
 941 1426 l 2
 1013 1426 1045 1387 1045 1336 c 0
 1045 1313 1040 1290 1029 1267 c 1
 512 49 l 2
EndSplineSet
EndChar

StartChar: six
Encoding: 54 54 219
Width: 1169
VWidth: 0
Flags: W
LayerCount: 2
Fore
SplineSet
971 1366 m 1
 994 1355 1003 1334 1003 1313 c 0
 1003 1276 974 1235 937 1235 c 0
 932 1235 926 1236 920 1238 c 0
 831 1273 745 1294 674 1294 c 0
 320 1294 271 969 271 714 c 1
 342 857 476 926 640 926 c 1
 918 922 1081 748 1081 464 c 0
 1081 164 897 -22 613 -22 c 0
 203 -22 89 296 89 655 c 0
 89 1023 171 1438 666 1438 c 0
 777 1438 882 1413 971 1366 c 1
597 118 m 0
 785 118 902 233 902 455 c 0
 902 651 819 794 620 799 c 1
 409 795 295 662 295 447 c 0
 295 244 429 118 597 118 c 0
EndSplineSet
EndChar

StartChar: slash
Encoding: 47 47 220
Width: 588
VWidth: 0
Flags: W
LayerCount: 2
Fore
SplineSet
116 -125 m 2
 104 -160 77 -175 49 -175 c 0
 14 -175 -20 -151 -20 -110 c 0
 -20 -103 -18 -94 -15 -83 c 2
 468 1380 l 2
 479 1415 507 1430 537 1430 c 0
 573 1430 608 1406 608 1365 c 0
 608 1358 606 1348 603 1337 c 2
 116 -125 l 2
EndSplineSet
EndChar

StartChar: sterling
Encoding: 163 163 222
Width: 1361
VWidth: 0
Flags: W
LayerCount: 2
Fore
SplineSet
193 750 m 2
 150 750 127 783 127 816 c 0
 127 849 149 881 193 881 c 2
 332 881 l 1
 332 1102 l 2
 332 1360 492 1451 713 1451 c 0
 801 1451 905 1440 996 1417 c 1
 1021 1408 1034 1383 1034 1358 c 0
 1034 1329 1016 1301 979 1301 c 0
 972 1301 968 1302 961 1303 c 0
 886 1310 821 1322 734 1322 c 0
 521 1322 494 1245 494 1016 c 2
 494 881 l 1
 870 881 l 2
 914 881 936 849 936 816 c 0
 936 783 914 750 870 750 c 2
 494 750 l 1
 494 145 l 1
 1132 145 l 2
 1181 145 1205 108 1205 72 c 0
 1205 35 1181 -1 1132 -1 c 2
 227 -1 l 2
 178 -1 153 36 153 73 c 0
 153 108 177 144 224 144 c 2
 332 144 l 1
 332 750 l 1
 193 750 l 2
EndSplineSet
EndChar

StartChar: summation
Encoding: 8721 8721 223
Width: 1159
VWidth: 0
Flags: W
LayerCount: 2
Fore
SplineSet
102 -198 m 2
 51 -198 34 -168 34 -139 c 0
 34 -122 39 -107 49 -95 c 2
 606 613 l 1
 74 1321 l 2
 65 1333 58 1350 58 1369 c 0
 58 1400 77 1430 133 1430 c 2
 1081 1430 l 2
 1126 1430 1148 1396 1148 1363 c 0
 1148 1328 1126 1296 1081 1296 c 2
 297 1296 l 1
 297 1288 l 1
 792 635 l 1
 257 -44 l 1
 257 -50 l 1
 1114 -50 l 2
 1162 -50 1186 -87 1186 -124 c 0
 1186 -161 1162 -198 1114 -198 c 2
 102 -198 l 2
EndSplineSet
EndChar

StartChar: t
Encoding: 116 116 224
Width: 706
VWidth: 0
Flags: W
LayerCount: 2
Fore
SplineSet
238 991 m 1
 251 1273 l 1
 254 1316 293 1341 330 1341 c 0
 363 1341 394 1320 394 1275 c 2
 394 991 l 1
 573 991 l 2
 616 991 637 961 637 930 c 0
 637 899 616 871 573 871 c 2
 394 871 l 1
 394 407 l 2
 394 171 396 102 517 102 c 0
 552 102 594 111 621 111 c 0
 664 111 679 78 679 55 c 0
 679 -10 559 -22 495 -22 c 0
 316 -22 234 64 234 319 c 2
 234 871 l 1
 113 871 l 2
 70 871 48 900 48 931 c 0
 48 962 70 991 113 991 c 2
 238 991 l 1
EndSplineSet
EndChar

StartChar: thorn
Encoding: 254 254 225
Width: 1159
VWidth: 0
Flags: W
LayerCount: 2
Fore
SplineSet
293 -263 m 2
 293 -316 254 -343 215 -343 c 0
 176 -343 138 -316 138 -263 c 2
 138 1352 l 2
 138 1400 179 1425 219 1425 c 0
 259 1425 298 1401 298 1352 c 2
 298 830 l 1
 370 955 515 1020 651 1020 c 0
 947 1020 1071 769 1071 500 c 0
 1071 243 949 -28 657 -28 c 0
 509 -28 381 37 293 173 c 1
 293 -263 l 2
298 514 m 0
 298 290 374 97 624 97 c 0
 848 97 902 329 902 508 c 0
 902 695 828 894 608 894 c 0
 384 894 298 712 298 514 c 0
EndSplineSet
EndChar

StartChar: three
Encoding: 51 51 226
Width: 1169
VWidth: 0
Flags: W
LayerCount: 2
Fore
SplineSet
527 796 m 2
 690 799 844 874 844 1047 c 0
 844 1203 712 1288 563 1288 c 0
 422 1288 276 1221 243 1221 c 0
 199 1221 170 1258 170 1297 c 0
 170 1324 185 1348 217 1363 c 0
 316 1408 426 1438 554 1438 c 0
 807 1438 1026 1315 1026 1049 c 0
 1026 881 902 767 752 735 c 1
 752 731 l 1
 929 693 1050 559 1050 370 c 0
 1050 92 819 -22 575 -22 c 0
 445 -22 186 35 186 127 c 0
 186 163 215 198 258 198 c 0
 267 198 275 197 283 194 c 0
 347 164 459 127 576 127 c 0
 753 127 866 212 866 368 c 0
 866 554 714 657 542 657 c 2
 467 657 l 2
 423 657 400 690 400 725 c 0
 400 760 423 794 467 795 c 2
 527 796 l 2
EndSplineSet
EndChar

StartChar: threequarters
Encoding: 190 190 227
Width: 1603
VWidth: 0
Flags: W
LayerCount: 2
Fore
SplineSet
269 1025 m 2
 366 1028 456 1073 456 1178 c 0
 456 1269 379 1320 291 1320 c 0
 207 1320 118 1280 99 1280 c 0
 72 1280 57 1300 57 1323 c 0
 57 1376 202 1406 284 1406 c 0
 422 1406 555 1335 555 1179 c 0
 555 1076 485 1009 394 988 c 1
 394 987 l 1
 497 963 570 883 570 771 c 0
 570 614 439 542 295 542 c 0
 217 542 67 577 67 629 c 0
 67 650 84 670 109 670 c 0
 114 670 119 669 125 667 c 0
 162 648 229 628 298 628 c 0
 403 628 470 678 470 771 c 0
 470 880 378 943 278 943 c 2
 233 943 l 2
 206 943 193 963 193 983 c 0
 193 1004 206 1023 233 1024 c 2
 269 1025 l 2
593 -48 m 2
 584 -75 563 -88 540 -88 c 0
 512 -88 484 -68 484 -35 c 0
 484 -28 485 -20 488 -13 c 2
 962 1392 l 2
 971 1420 994 1433 1018 1433 c 0
 1046 1433 1074 1413 1074 1380 c 0
 1074 1373 1073 1365 1070 1358 c 2
 593 -48 l 2
1196 791 m 1
 1217 826 1246 840 1278 840 c 0
 1317 840 1348 817 1348 766 c 2
 1348 262 l 1
 1441 262 l 2
 1466 262 1480 245 1480 226 c 0
 1480 207 1468 190 1441 190 c 2
 1348 190 l 1
 1348 49 l 2
 1348 17 1324 1 1300 1 c 0
 1275 1 1251 17 1251 49 c 2
 1251 190 l 1
 905 190 l 2
 870 190 848 215 848 244 c 0
 848 257 852 269 860 281 c 2
 1196 791 l 1
937 262 m 1
 1251 262 l 1
 1251 745 l 1
 937 262 l 1
EndSplineSet
EndChar

StartChar: threesuperior
Encoding: 179 179 228
Width: 789
VWidth: 0
Flags: W
LayerCount: 2
Fore
SplineSet
368 1018 m 2
 465 1021 555 1065 555 1170 c 0
 555 1262 478 1313 390 1313 c 0
 306 1313 217 1273 198 1273 c 0
 173 1273 156 1295 156 1316 c 0
 156 1369 301 1399 383 1399 c 0
 521 1399 654 1328 654 1171 c 0
 654 1067 584 1002 493 981 c 1
 493 980 l 1
 596 956 669 876 669 764 c 0
 669 607 539 535 394 535 c 0
 316 535 166 570 166 622 c 0
 166 642 184 662 209 662 c 0
 216 662 221 661 224 660 c 0
 261 641 328 620 397 620 c 0
 502 620 569 669 569 764 c 0
 569 873 477 936 377 936 c 2
 332 936 l 2
 305 936 292 956 292 976 c 0
 292 997 305 1016 332 1017 c 2
 368 1018 l 2
EndSplineSet
EndChar

StartChar: tilde
Encoding: 732 732 229
Width: 569
VWidth: 0
Flags: W
LayerCount: 2
Fore
SplineSet
412 1297 m 0
 459 1297 494 1368 533 1368 c 0
 556 1368 570 1353 570 1330 c 0
 570 1326 569 1321 568 1314 c 0
 547 1239 488 1180 397 1180 c 0
 318 1180 230 1249 160 1249 c 0
 131 1249 107 1237 84 1209 c 0
 68 1189 49 1180 30 1180 c 0
 9 1180 -9 1192 -9 1215 c 0
 -9 1221 -8 1227 -5 1233 c 0
 23 1310 77 1363 168 1363 c 0
 260 1363 346 1297 412 1297 c 0
EndSplineSet
EndChar

StartChar: trademark
Encoding: 8482 8482 230
Width: 1937
VWidth: 0
Flags: W
LayerCount: 2
Fore
SplineSet
941 1190 m 1
 941 714 l 2
 941 674 909 653 877 653 c 0
 845 653 814 674 814 714 c 2
 814 1262 l 2
 814 1339 859 1373 911 1373 c 0
 947 1373 987 1351 1015 1295 c 2
 1242 839 l 1
 1468 1295 l 2
 1495 1351 1533 1372 1571 1372 c 0
 1623 1372 1667 1339 1667 1262 c 2
 1667 714 l 2
 1667 674 1635 653 1603 653 c 0
 1571 653 1540 673 1540 714 c 2
 1540 1190 l 1
 1298 696 l 2
 1286 672 1264 658 1240 658 c 0
 1217 658 1195 669 1184 696 c 1
 941 1190 l 1
298 1277 m 1
 109 1277 l 2
 78 1277 62 1301 62 1325 c 0
 62 1349 77 1373 109 1373 c 2
 615 1373 l 2
 646 1373 661 1349 661 1324 c 0
 661 1301 646 1277 615 1277 c 2
 427 1277 l 1
 427 715 l 2
 427 674 394 654 362 654 c 0
 330 654 298 674 298 715 c 2
 298 1277 l 1
EndSplineSet
EndChar

StartChar: two
Encoding: 50 50 231
Width: 1169
VWidth: 0
Flags: W
LayerCount: 2
Fore
SplineSet
588 1292 m 0
 490 1292 389 1249 323 1209 c 0
 304 1198 285 1193 269 1193 c 0
 230 1193 202 1219 202 1254 c 0
 202 1339 441 1438 602 1438 c 0
 828 1438 1025 1322 1025 1101 c 0
 1025 899 829 648 621 444 c 1
 460 283 l 2
 404 227 354 182 313 145 c 1
 953 145 l 2
 1000 145 1023 108 1023 71 c 0
 1023 35 1000 0 953 0 c 2
 227 0 l 2
 143 0 106 39 106 90 c 0
 106 171 178 214 298 340 c 0
 537 592 843 885 843 1087 c 0
 843 1222 719 1292 588 1292 c 0
EndSplineSet
EndChar

StartChar: twosuperior
Encoding: 178 178 232
Width: 745
VWidth: 0
Flags: W
LayerCount: 2
Fore
SplineSet
369 1318 m 0
 310 1318 250 1292 211 1269 c 0
 200 1262 189 1259 178 1259 c 0
 155 1259 139 1275 139 1294 c 0
 139 1346 281 1404 377 1404 c 0
 510 1404 628 1336 628 1203 c 0
 628 1019 362 783 211 652 c 1
 595 652 l 2
 622 652 637 630 637 609 c 0
 637 588 623 567 595 567 c 2
 163 567 l 2
 112 567 90 589 90 620 c 0
 90 645 103 669 130 694 c 0
 250 802 521 1055 521 1195 c 0
 521 1275 446 1318 369 1318 c 0
EndSplineSet
EndChar

StartChar: u
Encoding: 117 117 233
Width: 1158
VWidth: 0
Flags: W
LayerCount: 2
Fore
SplineSet
1003 75 m 2
 1003 24 962 0 922 0 c 0
 883 0 843 24 843 73 c 2
 843 164 l 1
 786 45 649 -22 510 -22 c 0
 319 -22 155 92 155 365 c 2
 155 916 l 2
 155 967 195 991 235 991 c 0
 275 991 315 967 315 916 c 2
 315 354 l 2
 315 174 387 102 544 102 c 0
 700 102 830 190 843 387 c 1
 843 916 l 2
 843 965 884 991 924 991 c 0
 964 991 1003 967 1003 916 c 2
 1003 75 l 2
EndSplineSet
EndChar

StartChar: underscore
Encoding: 95 95 238
Width: 1024
VWidth: 0
Flags: W
LayerCount: 2
Fore
SplineSet
55 -254 m 2
 18 -254 -1 -224 -1 -195 c 0
 -1 -164 18 -135 55 -135 c 2
 965 -135 l 2
 1004 -135 1023 -164 1023 -195 c 0
 1023 -224 1004 -254 965 -254 c 2
 55 -254 l 2
EndSplineSet
EndChar

StartChar: uni030F
Encoding: 783 783 270
Width: 569
VWidth: 0
Flags: W
LayerCount: 2
Fore
SplineSet
-42 1367 m 2
 -58 1379 -65 1395 -65 1411 c 0
 -65 1455 -19 1499 26 1499 c 0
 45 1499 60 1492 77 1474 c 2
 347 1173 l 2
 356 1162 358 1152 359 1141 c 1
 359 1121 344 1104 321 1104 c 0
 309 1104 295 1108 280 1120 c 2
 -42 1367 l 2
271 1367 m 2
 255 1379 248 1396 248 1412 c 0
 248 1455 294 1499 339 1499 c 0
 358 1499 373 1492 390 1474 c 2
 659 1173 l 2
 668 1162 671 1152 672 1141 c 1
 672 1120 657 1104 634 1104 c 0
 622 1104 608 1108 593 1120 c 2
 271 1367 l 2
EndSplineSet
EndChar

StartChar: uni0311
Encoding: 785 785 271
Width: 569
VWidth: 0
Flags: W
LayerCount: 2
Fore
SplineSet
285 1490 m 0
 412 1490 507 1433 550 1337 c 0
 554 1328 556 1319 556 1312 c 0
 556 1284 533 1267 506 1267 c 0
 487 1267 471 1276 458 1294 c 0
 413 1355 373 1377 285 1377 c 0
 197 1377 155 1355 112 1294 c 0
 99 1276 83 1267 64 1267 c 0
 37 1267 14 1284 14 1312 c 0
 14 1319 16 1328 20 1337 c 0
 63 1433 158 1490 285 1490 c 0
EndSplineSet
EndChar

StartChar: uni0326
Encoding: 806 806 272
Width: 584
VWidth: 0
Flags: W
LayerCount: 2
Fore
SplineSet
249 -632 m 1
 111 -632 l 1
 204 -207 l 1
 401 -207 l 1
 249 -632 l 1
EndSplineSet
EndChar

StartChar: v
Encoding: 118 118 278
Width: 1027
VWidth: 0
Flags: W
LayerCount: 2
Fore
SplineSet
659 121 m 2
 625 36 589 0 519 0 c 0
 448 0 413 36 378 121 c 2
 57 890 l 2
 53 900 51 910 51 919 c 0
 51 961 93 991 134 991 c 0
 163 991 192 976 205 940 c 1
 518 185 l 1
 820 940 l 1
 833 976 862 991 893 991 c 0
 934 991 975 963 975 920 c 0
 975 910 973 900 969 890 c 2
 659 121 l 2
EndSplineSet
EndChar

StartChar: w
Encoding: 119 119 279
Width: 1718
VWidth: 0
Flags: W
LayerCount: 2
Fore
SplineSet
864 839 m 1
 585 87 l 1
 565 20 519 0 472 0 c 0
 428 0 386 19 367 82 c 1
 67 886 l 1
 64 897 62 907 62 914 c 0
 62 960 100 991 140 991 c 0
 171 991 201 975 212 936 c 1
 483 173 l 1
 755 912 l 1
 775 972 818 991 869 991 c 0
 921 991 963 972 983 912 c 1
 1244 181 l 1
 1508 936 l 2
 1521 973 1549 991 1580 991 c 0
 1623 991 1657 960 1657 917 c 0
 1657 908 1655 898 1652 886 c 1
 1347 82 l 1
 1328 22 1288 0 1243 0 c 0
 1198 0 1156 17 1137 87 c 1
 864 839 l 1
EndSplineSet
EndChar

StartChar: x
Encoding: 120 120 280
Width: 1033
VWidth: 0
Flags: W
LayerCount: 2
Fore
SplineSet
415 508 m 1
 128 869 l 2
 116 884 112 898 112 913 c 0
 112 955 153 991 197 991 c 0
 219 991 242 981 261 957 c 2
 525 609 l 1
 797 961 l 2
 813 982 833 991 853 991 c 0
 890 991 925 960 925 924 c 0
 925 910 920 897 910 884 c 2
 621 511 l 1
 930 120 l 2
 941 106 946 92 946 77 c 0
 946 37 905 0 861 0 c 0
 838 0 815 10 797 34 c 2
 507 413 l 1
 217 29 l 2
 203 10 184 0 163 0 c 0
 123 0 85 34 85 71 c 0
 85 84 90 97 99 108 c 2
 415 508 l 1
EndSplineSet
EndChar

StartChar: y
Encoding: 121 121 281
Width: 1029
VWidth: 0
Flags: W
LayerCount: 2
Fore
SplineSet
441 10 m 1
 55 887 l 2
 50 896 48 906 48 916 c 0
 48 960 93 991 137 991 c 0
 167 991 196 976 211 941 c 2
 521 188 l 1
 830 942 l 2
 845 978 871 991 899 991 c 0
 939 991 979 962 979 918 c 0
 979 908 977 898 973 888 c 2
 470 -334 l 2
 454 -373 427 -388 396 -388 c 0
 355 -388 314 -358 314 -314 c 0
 314 -305 316 -295 320 -285 c 2
 441 10 l 1
EndSplineSet
EndChar

StartChar: yen
Encoding: 165 165 284
Width: 1177
VWidth: 0
Flags: W
LayerCount: 2
Fore
SplineSet
685 626 m 1
 1016 626 l 2
 1057 626 1077 596 1077 565 c 0
 1077 534 1057 505 1016 505 c 2
 680 505 l 1
 680 390 l 1
 1016 390 l 2
 1057 390 1077 360 1077 329 c 0
 1077 298 1057 269 1016 269 c 2
 680 269 l 1
 680 84 l 2
 680 29 636 2 591 2 c 0
 547 2 502 29 502 84 c 2
 502 269 l 1
 163 269 l 2
 123 269 102 299 102 330 c 0
 102 361 122 390 163 390 c 2
 502 390 l 1
 502 505 l 1
 163 505 l 2
 123 505 103 536 103 567 c 0
 103 596 122 626 163 626 c 2
 494 626 l 1
 41 1306 l 2
 32 1319 29 1332 29 1344 c 0
 29 1389 76 1424 125 1424 c 0
 153 1424 180 1411 200 1381 c 2
 603 755 l 1
 1008 1382 l 1
 1025 1413 1053 1424 1080 1424 c 0
 1121 1424 1159 1397 1159 1358 c 0
 1159 1346 1156 1332 1147 1319 c 2
 685 626 l 1
EndSplineSet
EndChar

StartChar: z
Encoding: 122 122 285
Width: 931
VWidth: 0
Flags: W
LayerCount: 2
Fore
SplineSet
787 131 m 2
 831 131 853 98 853 65 c 0
 853 32 831 0 787 0 c 2
 164 0 l 2
 109 0 77 34 77 77 c 0
 77 97 84 119 100 140 c 2
 661 859 l 1
 155 859 l 2
 112 859 90 892 90 925 c 0
 90 958 111 991 155 991 c 2
 769 991 l 2
 829 991 862 959 862 916 c 0
 862 896 854 874 837 851 c 2
 282 131 l 1
 787 131 l 2
EndSplineSet
EndChar

StartChar: zero
Encoding: 48 48 287
Width: 1169
VWidth: 0
Flags: W
LayerCount: 2
Fore
SplineSet
584 1296 m 0
 312 1296 278 969 278 705 c 0
 278 461 309 120 584 120 c 0
 861 120 892 464 892 705 c 0
 892 966 858 1296 584 1296 c 0
584 1438 m 0
 971 1438 1075 1103 1075 705 c 0
 1075 329 977 -22 584 -22 c 0
 192 -22 93 326 93 705 c 0
 93 1105 198 1438 584 1438 c 0
EndSplineSet
EndChar
